<svg width="51" height="50" viewBox="0 0 51 50" fill="none" xmlns="http://www.w3.org/2000/svg">
<g clip-path="url(#clip0)">
<path d="M34.4519 31.6665H16.3686C15.6147 31.6667 14.9417 32.1391 14.6852 32.848C14.4287 33.5569 14.6436 34.3505 15.2228 34.8331L17.9245 37.0831C18.2464 37.3514 18.6521 37.4988 19.0712 37.4998H31.7495C32.1686 37.4988 32.5742 37.3514 32.8962 37.0831L35.5979 34.8331C36.1771 34.3505 36.392 33.5569 36.1355 32.848C35.8789 32.139 35.2058 31.6667 34.4519 31.6665ZM34.5353 33.5532L31.8344 35.8032C31.8108 35.8222 31.7813 35.8325 31.7511 35.8324H19.0728C19.0424 35.8329 19.0128 35.8225 18.9894 35.8032L16.2878 33.5532C16.2467 33.5195 16.2317 33.4634 16.2504 33.4137C16.269 33.3639 16.3172 33.3316 16.3703 33.3331H34.4536C34.5068 33.3312 34.5553 33.3634 34.5741 33.4132C34.593 33.463 34.578 33.5193 34.5369 33.5532H34.5353Z" fill="#303030"/>
<path d="M40.4354 32.0832L37.7254 34.3332C37.1442 34.8149 36.9279 35.6096 37.1847 36.3195C37.4416 37.0293 38.1164 37.5016 38.8713 37.4999H45.4113C46.3318 37.4999 47.078 36.7537 47.078 35.8332V33.3332C47.078 32.4127 46.3318 31.6665 45.4113 31.6665H41.5821C41.163 31.6677 40.7575 31.815 40.4354 32.0832ZM45.4113 33.3331V35.8331H38.8713C38.8168 35.8384 38.7668 35.8029 38.7537 35.7498C38.7315 35.7016 38.7474 35.6445 38.7912 35.6148L41.5021 33.3598C41.5254 33.3404 41.5551 33.3303 41.5854 33.3315L45.4113 33.3331Z" fill="#303030"/>
<path d="M10.3872 32.0832C10.0662 31.8159 9.6623 31.6686 9.24466 31.6665H5.41131C4.49083 31.6665 3.74463 32.4127 3.74463 33.3332V35.8332C3.74463 36.7537 4.49083 37.4999 5.41131 37.4999H11.9496C12.7047 37.5019 13.3798 37.0298 13.6368 36.3199C13.8938 35.6099 13.6776 34.815 13.0963 34.3332L10.3872 32.0832ZM12.0689 35.7498C12.0558 35.8029 12.0058 35.8384 11.9513 35.8331H5.41131V33.3331H9.24466C9.27501 33.332 9.30462 33.3421 9.32799 33.3614L12.0397 35.6172C12.0795 35.649 12.0917 35.7043 12.0689 35.7498Z" fill="#303030"/>
<path fill-rule="evenodd" clip-rule="evenodd" d="M11.2445 40H5.41118C4.95098 40 4.57788 40.3731 4.57788 40.8333C4.57788 41.2935 4.95098 41.6666 5.41118 41.6666H11.2445C11.7047 41.6666 12.0778 41.2935 12.0778 40.8333C12.0778 40.3731 11.7047 40 11.2445 40Z" fill="#303030"/>
<path fill-rule="evenodd" clip-rule="evenodd" d="M45.4112 40H39.5778C39.1176 40 38.7445 40.3731 38.7445 40.8333C38.7445 41.2935 39.1176 41.6666 39.5778 41.6666H45.4112C45.8714 41.6666 46.2445 41.2935 46.2445 40.8333C46.2445 40.3731 45.8714 40 45.4112 40Z" fill="#303030"/>
<path fill-rule="evenodd" clip-rule="evenodd" d="M32.9112 40H17.9112C17.451 40 17.0779 40.3731 17.0779 40.8333C17.0779 41.2935 17.451 41.6666 17.9112 41.6666H32.9112C33.3714 41.6666 33.7445 41.2935 33.7445 40.8333C33.7445 40.3731 33.3714 40 32.9112 40Z" fill="#303030"/>
<path d="M50.4111 24.1666C50.4111 22.7859 49.2918 21.6666 47.9112 21.6666H46.2445C45.5184 21.669 44.8296 21.989 44.3595 22.5425L42.7945 17.8491C42.229 16.1467 40.6359 14.9984 38.8419 15H11.9803C10.1863 14.9984 8.59325 16.1467 8.02774 17.8491L6.46275 22.5425C5.99263 21.9891 5.30392 21.669 4.57773 21.6666H2.91113C1.53044 21.6666 0.411143 22.7859 0.411143 24.1666C0.411143 25.5473 1.53044 26.6666 2.91113 26.6666H4.23277L1.14364 29.7558C0.673026 30.2234 0.409256 30.8599 0.411143 31.5233V42.4999C0.41549 43.5555 1.08254 44.4946 2.07783 44.8466V47.5C2.07783 48.8806 3.19713 49.9999 4.57782 49.9999H10.4112C11.7919 49.9999 12.9112 48.8806 12.9112 47.5V45H37.9111V47.5C37.9111 48.8806 39.0304 49.9999 40.4111 49.9999H46.2445C47.6252 49.9999 48.7445 48.8806 48.7445 47.5V44.8466C49.7397 44.4947 50.4067 43.5555 50.4111 42.4999V31.5233C50.413 30.8599 50.1493 30.2234 49.6786 29.7558L46.5895 26.6666H47.9112C49.2918 26.6666 50.4111 25.5473 50.4111 24.1666ZM9.60863 18.3766C9.94868 17.3556 10.9041 16.6667 11.9803 16.6666H38.8419C39.9182 16.6667 40.8735 17.3556 41.2136 18.3766L43.4211 25H7.40112L9.60863 18.3766ZM2.91113 25C2.45093 25 2.07783 24.6269 2.07783 24.1667C2.07783 23.7065 2.45093 23.3334 2.91113 23.3334H4.57782C5.03802 23.3334 5.41112 23.7065 5.41112 24.1667V25H2.91113ZM11.2445 47.5C11.2445 47.9602 10.8714 48.3333 10.4112 48.3333H4.57782C4.11761 48.3333 3.74451 47.9602 3.74451 47.5V45H11.2445V47.5ZM47.0778 47.5C47.0778 47.9602 46.7047 48.3333 46.2445 48.3333H40.4111C39.9509 48.3333 39.5778 47.9602 39.5778 47.5V45H47.0778V47.5ZM48.5003 30.9341C48.6559 31.0909 48.7436 31.3025 48.7445 31.5233V42.4999C48.7445 42.9601 48.3714 43.3332 47.9112 43.3332H2.91113C2.45093 43.3332 2.07783 42.9601 2.07783 42.4999V31.5233C2.07873 31.3024 2.16641 31.0908 2.322 30.9341L6.58947 26.6666H44.2328L48.5003 30.9341ZM45.4112 25V24.1667C45.4112 23.7065 45.7843 23.3334 46.2445 23.3334H47.9112C48.3714 23.3334 48.7445 23.7065 48.7445 24.1667C48.7445 24.6269 48.3714 25 47.9112 25H45.4112Z" fill="#303030"/>
<path d="M49.6775 13.3069C48.3556 13.3069 47.2802 12.2316 47.2802 10.9097C47.2802 10.5043 46.9517 10.1758 46.5463 10.1758C46.1409 10.1758 45.8124 10.5043 45.8124 10.9097C45.8124 12.2315 44.7371 13.3069 43.4152 13.3069C43.0098 13.3069 42.6813 13.6354 42.6813 14.0408C42.6813 14.4462 43.0098 14.7747 43.4152 14.7747C44.737 14.7747 45.8124 15.8501 45.8124 17.172C45.8124 17.5773 46.1409 17.9059 46.5463 17.9059C46.9517 17.9059 47.2802 17.5773 47.2802 17.172C47.2802 15.8501 48.3555 14.7747 49.6775 14.7747C50.0828 14.7747 50.4114 14.4462 50.4114 14.0408C50.4114 13.6354 50.0828 13.3069 49.6775 13.3069ZM46.5464 14.9084C46.305 14.5755 46.0116 14.2822 45.6788 14.0408C46.0117 13.7994 46.3051 13.5061 46.5464 13.1732C46.7878 13.5062 47.0812 13.7994 47.414 14.0408C47.0811 14.2822 46.7878 14.5756 46.5464 14.9084Z" fill="#303030"/>
<path d="M7.40745 13.3069C6.08567 13.3069 5.01018 12.2316 5.01018 10.9097C5.01018 10.5043 4.68157 10.1758 4.27629 10.1758C3.87102 10.1758 3.54241 10.5043 3.54241 10.9097C3.54241 12.2315 2.46692 13.3069 1.14514 13.3069C0.739868 13.3069 0.411255 13.6354 0.411255 14.0408C0.411255 14.4462 0.739868 14.7747 1.14514 14.7747C2.46692 14.7747 3.54241 15.8501 3.54241 17.172C3.54241 17.5773 3.87102 17.9059 4.27629 17.9059C4.68157 17.9059 5.01018 17.5773 5.01018 17.172C5.01018 15.8501 6.08567 14.7747 7.40745 14.7747C7.81272 14.7747 8.14133 14.4462 8.14133 14.0408C8.14133 13.6354 7.81272 13.3069 7.40745 13.3069ZM4.27629 14.9084C4.03489 14.5755 3.74163 14.2822 3.40872 14.0408C3.74172 13.7994 4.03499 13.5061 4.27629 13.1732C4.5177 13.5062 4.81096 13.7994 5.14387 14.0408C4.81106 14.2822 4.5177 14.5756 4.27629 14.9084Z" fill="#303030"/>
<path d="M29.325 3.91387C27.5715 3.91387 26.1449 2.4874 26.1449 0.733789C26.145 0.328516 25.8165 0 25.4112 0C25.0059 0 24.6773 0.328516 24.6773 0.733887C24.6773 2.4874 23.2506 3.91396 21.4972 3.91396C21.0919 3.91396 20.7633 4.24248 20.7633 4.64785C20.7633 5.05322 21.0919 5.38174 21.4972 5.38174C23.2506 5.38174 24.6773 6.8083 24.6773 8.56182C24.6773 8.96719 25.0059 9.2957 25.4112 9.2957C25.8165 9.2957 26.145 8.96719 26.145 8.56182C26.145 6.8083 27.5716 5.38174 29.3251 5.38174C29.7305 5.38174 30.059 5.05322 30.059 4.64785C30.059 4.24248 29.7304 3.91387 29.325 3.91387ZM25.4112 6.05732C25.0484 5.49248 24.5664 5.01055 24.0015 4.64775C24.5664 4.28496 25.0484 3.80303 25.4112 3.23818C25.7739 3.80303 26.2559 4.28496 26.8207 4.64775C26.2559 5.01055 25.7739 5.49248 25.4112 6.05732Z" fill="#303030"/>
</g>
<defs>
<clipPath id="clip0">
<rect width="50" height="50" fill="white" transform="translate(0.411255)"/>
</clipPath>
</defs>
</svg>
