<svg width="51" height="50" viewBox="0 0 51 50" fill="none" xmlns="http://www.w3.org/2000/svg">
<g clip-path="url(#clip0)">
<path d="M34.4521 31.6665H16.3688C15.6144 31.6658 14.9405 32.1381 14.6838 32.8475C14.4271 33.5569 14.6427 34.351 15.2229 34.8332L17.9238 37.0832C18.2457 37.3522 18.6518 37.4997 19.0713 37.4999H31.7496C32.1689 37.4998 32.5747 37.3522 32.8963 37.0832L35.598 34.8332C36.1782 34.351 36.3938 33.5569 36.1371 32.8475C35.8803 32.1381 35.2065 31.6658 34.4521 31.6665ZM34.5354 33.5532L31.8338 35.8032C31.8103 35.8224 31.7807 35.8324 31.7504 35.8315H19.0729C19.0425 35.8324 19.0128 35.822 18.9896 35.8023L16.2879 33.5523C16.2433 33.5216 16.2274 33.4631 16.2504 33.414C16.2634 33.3612 16.3129 33.3258 16.3671 33.3306H34.4504C34.5045 33.3258 34.554 33.3612 34.567 33.414C34.5908 33.4629 34.5756 33.5218 34.5312 33.5532H34.5354V33.5532Z" fill="#303030"/>
<path d="M40.4354 32.0832L37.7253 34.3332C37.1431 34.8145 36.9261 35.6098 37.1831 36.32C37.4401 37.0304 38.1157 37.5026 38.8711 37.4999H45.4111C46.3316 37.4999 47.0778 36.7537 47.0778 35.8332V33.3332C47.0778 32.4127 46.3316 31.6665 45.4111 31.6665H41.582C41.1629 31.6677 40.7574 31.815 40.4354 32.0832ZM45.4112 33.3332V35.8332H38.8712C38.8167 35.8385 38.7667 35.803 38.7537 35.7498C38.7308 35.702 38.7469 35.6447 38.7911 35.6157L41.502 33.3607C41.5251 33.3408 41.5549 33.3305 41.5853 33.3315L45.4112 33.3332Z" fill="#303030"/>
<path d="M10.3872 32.0832C10.0664 31.8156 9.66238 31.6683 9.24466 31.6665H5.41131C4.49083 31.6665 3.74463 32.4127 3.74463 33.3332V35.8332C3.74463 36.7537 4.49083 37.4999 5.41131 37.4999H11.9496C12.7047 37.5019 13.3798 37.0298 13.6368 36.3199C13.8938 35.6099 13.6776 34.815 13.0963 34.3332L10.3872 32.0832ZM12.0689 35.7498C12.0558 35.8029 12.0058 35.8384 11.9513 35.8331H5.41131V33.3331H9.24466C9.27509 33.332 9.30487 33.3425 9.32799 33.3623L12.0397 35.6173C12.0799 35.6488 12.0921 35.7043 12.0689 35.7498Z" fill="#303030"/>
<path fill-rule="evenodd" clip-rule="evenodd" d="M11.2448 40H5.41143C4.95122 40 4.57812 40.3731 4.57812 40.8333C4.57812 41.2935 4.95122 41.6666 5.41143 41.6666H11.2448C11.705 41.6666 12.0781 41.2935 12.0781 40.8333C12.0781 40.3731 11.705 40 11.2448 40Z" fill="#303030"/>
<path fill-rule="evenodd" clip-rule="evenodd" d="M45.4117 40H39.5783C39.1181 40 38.745 40.3731 38.745 40.8333C38.745 41.2935 39.1181 41.6666 39.5783 41.6666H45.4117C45.8719 41.6666 46.2449 41.2935 46.2449 40.8333C46.2449 40.3731 45.8719 40 45.4117 40Z" fill="#303030"/>
<path fill-rule="evenodd" clip-rule="evenodd" d="M32.9117 40H17.9117C17.4515 40 17.0784 40.3731 17.0784 40.8333C17.0784 41.2935 17.4515 41.6666 17.9117 41.6666H32.9117C33.3719 41.6666 33.745 41.2935 33.745 40.8333C33.745 40.3731 33.3719 40 32.9117 40Z" fill="#303030"/>
<path d="M50.4111 24.1667C50.4111 22.786 49.2918 21.6667 47.9112 21.6667H46.2445C45.5179 21.6694 44.829 21.9897 44.3586 22.5434L42.7945 17.8567C42.4086 16.6956 41.5311 15.7634 40.3953 15.3084C40.3953 15.2042 40.4111 15.1043 40.4111 15.0001C40.4111 6.71571 33.6954 0 25.4111 0C17.1268 0 10.4112 6.71571 10.4112 15C10.4112 15.1042 10.4245 15.2041 10.427 15.3083C9.29212 15.7625 8.41477 16.6935 8.02863 17.8533L6.46365 22.5434C5.99328 21.9897 5.30433 21.6694 4.57781 21.6667H2.91113C1.53044 21.6667 0.411139 22.786 0.411139 24.1667C0.411139 25.5473 1.53044 26.6666 2.91113 26.6666H4.23276L1.14946 29.75C0.675565 30.2189 0.409663 30.8583 0.411139 31.525V42.5C0.415486 43.5556 1.08254 44.4947 2.07782 44.8466V47.5C2.07782 48.8807 3.19712 50 4.57781 50H10.4112C11.7919 50 12.9112 48.8807 12.9112 47.5V45H37.9111V47.5C37.9111 48.8807 39.0304 50 40.4111 50H46.2445C47.6251 50 48.7444 48.8807 48.7444 47.5V44.8466C49.7397 44.4948 50.4067 43.5556 50.4111 42.5V31.525C50.4126 30.8596 50.1476 30.2212 49.6753 29.7525L46.592 26.6692H47.9112C48.5746 26.6692 49.2109 26.4054 49.6798 25.9361C50.1487 25.4666 50.4118 24.8301 50.4111 24.1667ZM41.2119 18.3809L43.4211 25H36.5594C38.5427 22.7978 39.8256 20.0549 40.2444 17.1209C40.6966 17.4231 41.0367 17.866 41.2119 18.3809ZM25.4111 1.66669C32.7749 1.66669 38.7444 7.63619 38.7444 15C38.7444 22.3638 32.7749 28.3333 25.4111 28.3333C18.0473 28.3333 12.0778 22.3638 12.0778 15C12.0866 7.6398 18.051 1.67538 25.4111 1.66669ZM9.61117 18.3767C9.78685 17.8633 10.1265 17.422 10.5778 17.1208C10.9967 20.0549 12.2795 22.7977 14.2628 25H7.40111L9.61117 18.3767ZM2.91113 25C2.45092 25 2.07782 24.6269 2.07782 24.1667C2.07782 23.7065 2.45092 23.3334 2.91113 23.3334H4.57781C5.03801 23.3334 5.41111 23.7065 5.41111 24.1667V25H2.91113ZM11.2445 47.5C11.2445 47.9602 10.8714 48.3333 10.4112 48.3333H4.57781C4.11761 48.3333 3.74451 47.9602 3.74451 47.5V45H11.2445V47.5ZM47.0778 47.5C47.0778 47.9602 46.7047 48.3333 46.2445 48.3333H40.4111C39.9509 48.3333 39.5778 47.9602 39.5778 47.5V45H47.0778V47.5ZM48.4945 30.9308C48.6542 31.0873 48.7442 31.3014 48.7444 31.525V42.5C48.7444 42.9602 48.3714 43.3333 47.9112 43.3333H2.91113C2.45092 43.3333 2.07782 42.9602 2.07782 42.5V31.525C2.07807 31.3014 2.16813 31.0873 2.32782 30.9308L6.58947 26.6666H16.0061C21.4903 31.1111 29.3369 31.1111 34.8211 26.6666H44.2377L48.4945 30.9308ZM45.4112 25V24.1667C45.4112 23.7065 45.7843 23.3334 46.2445 23.3334H47.9112C48.3714 23.3334 48.7444 23.7065 48.7444 24.1667C48.7444 24.6269 48.3714 25 47.9112 25H45.4112Z" fill="#303030"/>
<path d="M17.9944 14.5701C18.4364 14.5708 18.8605 14.3954 19.1728 14.0826L19.6103 13.6451L21.4236 15.4584L21.007 15.8751C18.639 15.6178 16.5093 17.3246 16.2444 19.6918C16.2198 20.2216 16.4808 20.7241 16.9284 21.0086C17.376 21.2932 17.9417 21.3164 18.4111 21.0693C18.9553 20.7792 19.1611 20.9859 19.2928 21.1267C19.4244 21.2676 19.6327 21.4601 19.3478 21.9901C19.0998 22.4456 19.1097 22.9979 19.3738 23.4442C19.638 23.8906 20.1175 24.165 20.6361 24.1667H20.6861C21.3919 24.1247 22.0711 23.8828 22.6444 23.4693C23.9624 22.5619 24.6816 21.0088 24.5211 19.4168L24.9528 18.9843L29.6469 23.6784C30.2996 24.3307 31.3574 24.3307 32.0102 23.6784L33.1844 22.5001C33.8328 21.8496 33.8328 20.7972 33.1844 20.1467L28.4903 15.4534L29.8078 14.135C31.0724 14.2946 32.3396 13.8587 33.2386 12.9551C33.986 12.2684 34.4515 11.3283 34.5444 10.3175V10.3117C34.5699 9.78154 34.3091 9.27836 33.8613 8.99343C33.4134 8.7085 32.8472 8.68561 32.3778 8.93331C31.8327 9.22414 31.622 9.01081 31.492 8.88C31.362 8.74918 31.1495 8.53667 31.4478 8.00085C31.6927 7.53318 31.6708 6.97054 31.3903 6.52338C31.123 6.07252 30.6279 5.80687 30.1045 5.83336C29.3984 5.8756 28.7189 6.1178 28.1453 6.53166C26.8207 7.44378 26.1025 9.00844 26.2745 10.6075L24.9611 11.9216L23.1478 10.1083L23.8877 9.36833C24.3121 8.94372 24.4753 8.32375 24.3151 7.74528C24.1549 7.16672 23.6959 6.71915 23.1136 6.57341L20.2845 5.86592C19.7163 5.72542 19.1161 5.89159 18.7011 6.30422L15.0486 9.95755C14.7359 10.2701 14.5602 10.6941 14.5602 11.1363C14.5602 11.5785 14.7359 12.0025 15.0486 12.3151L16.8169 14.0834C17.129 14.3959 17.5528 14.5711 17.9944 14.5701ZM32.0028 21.3201L30.8278 22.5001L26.1319 17.8084L27.3111 16.6292L32.0028 21.3201ZM27.7594 11.4809C27.965 11.2755 28.0488 10.9777 27.9803 10.6951C27.7544 9.6248 28.1938 8.52355 29.0944 7.90267C29.3132 7.74626 29.5573 7.62865 29.8161 7.55516C29.4636 8.41438 29.6622 9.40122 30.3196 10.0572C30.977 10.7132 31.9643 10.9096 32.8227 10.5552C32.6741 11.0211 32.4094 11.4415 32.0535 11.7769C31.4517 12.3922 30.5667 12.6385 29.7336 12.4227C29.4489 12.3504 29.1471 12.4333 28.9394 12.641L23.0394 18.541C22.8358 18.7446 22.7516 19.0389 22.8169 19.3194C23.0319 20.3855 22.591 21.4773 21.6961 22.0952C21.4763 22.2516 21.2314 22.3692 20.9719 22.4427C21.351 21.5894 21.1506 20.5898 20.472 19.9486C20.0632 19.5076 19.4899 19.256 18.8886 19.2535C18.5708 19.2562 18.2564 19.3191 17.962 19.4386C18.1109 18.9726 18.3758 18.5522 18.7319 18.2169C19.342 17.5974 20.2389 17.3553 21.0777 17.5836C21.3636 17.6576 21.6673 17.5749 21.8761 17.3661L27.7594 11.4809ZM23.7828 13.1001L22.6028 14.2801L20.7894 12.4667L21.9694 11.2867L23.7828 13.1001ZM19.8803 7.48257L22.7136 8.18678L17.9944 12.9043L16.2261 11.1368L19.8803 7.48257Z" fill="#303030"/>
</g>
<defs>
<clipPath id="clip0">
<rect width="50" height="50" fill="white" transform="translate(0.411255)"/>
</clipPath>
</defs>
</svg>
