<svg width="51" height="50" viewBox="0 0 51 50" fill="none" xmlns="http://www.w3.org/2000/svg">
<g clip-path="url(#clip0)">
<path d="M34.8447 31.6665H16.7614C16.007 31.6658 15.3331 32.1381 15.0764 32.8475C14.8197 33.5569 15.0353 34.351 15.6155 34.8332L18.3163 37.0832C18.6383 37.3522 19.0443 37.4997 19.4639 37.4999H32.1422C32.5615 37.4998 32.9673 37.3522 33.2889 37.0832L35.9905 34.8332C36.5707 34.351 36.7864 33.5569 36.5296 32.8475C36.2729 32.1381 35.5991 31.6657 34.8447 31.6665ZM34.928 33.5532L32.2263 35.8032C32.2029 35.8223 32.1733 35.8323 32.143 35.8315H19.4655C19.4351 35.8324 19.4054 35.8219 19.3822 35.8023L16.6805 33.5523C16.6359 33.5215 16.62 33.463 16.643 33.4139C16.656 33.3611 16.7055 33.3257 16.7596 33.3306H34.8429C34.8971 33.3257 34.9466 33.3611 34.9596 33.4139C34.9834 33.4628 34.9682 33.5218 34.9237 33.5531H34.928V33.5532Z" fill="#303030"/>
<path d="M40.828 32.0832L38.118 34.3332C37.5357 34.8145 37.3188 35.6098 37.5758 36.32C37.8328 37.0304 38.5084 37.5026 39.2638 37.4999H45.8038C46.7243 37.4999 47.4705 36.7537 47.4705 35.8332V33.3332C47.4705 32.4127 46.7243 31.6665 45.8038 31.6665H41.9746C41.5556 31.6677 41.1501 31.815 40.828 32.0832ZM45.8039 33.3332V35.8332H39.2639C39.2094 35.8385 39.1594 35.803 39.1463 35.7498C39.1234 35.702 39.1395 35.6447 39.1838 35.6157L41.8947 33.3607C41.9178 33.3408 41.9476 33.3305 41.978 33.3315L45.8039 33.3332Z" fill="#303030"/>
<path d="M10.7798 32.0832C10.459 31.8156 10.055 31.6683 9.63724 31.6665H5.80389C4.88341 31.6665 4.13721 32.4127 4.13721 33.3332V35.8332C4.13721 36.7537 4.88341 37.4999 5.80389 37.4999H12.3422C13.0972 37.5019 13.7723 37.0298 14.0294 36.3199C14.2864 35.6099 14.0701 34.815 13.4889 34.3332L10.7798 32.0832ZM12.4614 35.7498C12.4484 35.8029 12.3984 35.8384 12.3439 35.8331H5.80389V33.3331H9.63724C9.66767 33.332 9.69744 33.3425 9.72057 33.3623L12.4322 35.6173C12.4724 35.6488 12.4847 35.7043 12.4614 35.7498Z" fill="#303030"/>
<path fill-rule="evenodd" clip-rule="evenodd" d="M11.6374 40H5.80401C5.3438 40 4.9707 40.3731 4.9707 40.8333C4.9707 41.2935 5.3438 41.6666 5.80401 41.6666H11.6374C12.0976 41.6666 12.4707 41.2935 12.4707 40.8333C12.4707 40.3731 12.0976 40 11.6374 40Z" fill="#303030"/>
<path fill-rule="evenodd" clip-rule="evenodd" d="M45.804 40H39.9706C39.5104 40 39.1373 40.3731 39.1373 40.8333C39.1373 41.2935 39.5104 41.6666 39.9706 41.6666H45.804C46.2642 41.6666 46.6373 41.2935 46.6373 40.8333C46.6373 40.3731 46.2642 40 45.804 40Z" fill="#303030"/>
<path fill-rule="evenodd" clip-rule="evenodd" d="M33.304 40H18.304C17.8438 40 17.4707 40.3731 17.4707 40.8333C17.4707 41.2935 17.8438 41.6666 18.304 41.6666H33.304C33.7642 41.6666 34.1373 41.2935 34.1373 40.8333C34.1373 40.3731 33.7642 40 33.304 40Z" fill="#303030"/>
<path d="M50.804 24.1666C50.804 22.7859 49.6847 21.6666 48.304 21.6666H46.6373C45.9112 21.6691 45.2225 21.9891 44.7523 22.5425L43.1873 17.8483C42.6215 16.1462 41.0285 14.9982 39.2348 15H12.3731C10.5794 14.9982 8.9864 16.1462 8.42056 17.8483L6.85558 22.5425C6.38537 21.9892 5.69666 21.6691 4.97056 21.6666H3.30396C1.92327 21.6666 0.803968 22.7859 0.803968 24.1666C0.803968 25.5473 1.92327 26.6666 3.30396 26.6666H4.62559L1.53647 29.7558C1.06569 30.2235 0.801835 30.8604 0.803968 31.5241V42.4999C0.808315 43.5555 1.47537 44.4946 2.47065 44.8466V47.5C2.47065 48.8806 3.58995 49.9999 4.97064 49.9999H10.804C12.1847 49.9999 13.304 48.8806 13.304 47.5V45H38.304V47.5C38.304 48.8806 39.4232 49.9999 40.8039 49.9999H46.6373C48.018 49.9999 49.1373 48.8806 49.1373 47.5V44.8466C50.1326 44.4947 50.7995 43.5555 50.804 42.4999V31.5241C50.8061 30.8604 50.5423 30.2235 50.0715 29.7558L46.9823 26.6666H48.304C49.6847 26.6666 50.804 25.5473 50.804 24.1666ZM10.0015 18.3758C10.3418 17.3551 11.2971 16.6666 12.3731 16.6666H39.2348C40.3108 16.6666 41.266 17.3551 41.6064 18.3758L43.8139 25H7.79394L10.0015 18.3758ZM3.30396 24.9999C2.84375 24.9999 2.47065 24.6268 2.47065 24.1666C2.47065 23.7064 2.84375 23.3333 3.30396 23.3333H4.97064C5.43084 23.3333 5.80394 23.7064 5.80394 24.1666V24.9999H3.30396ZM11.6373 47.5C11.6373 47.9602 11.2642 48.3333 10.804 48.3333H4.97064C4.51044 48.3333 4.13734 47.9602 4.13734 47.5V45H11.6373V47.5ZM47.4706 47.5C47.4706 47.9602 47.0975 48.3333 46.6373 48.3333H40.8039C40.3437 48.3333 39.9706 47.9602 39.9706 47.5V45H47.4706V47.5ZM48.8931 30.9341C49.0496 31.0906 49.1375 31.3029 49.1373 31.5242V42.5C49.1373 42.9602 48.7642 43.3333 48.304 43.3333H3.30396C2.84375 43.3333 2.47065 42.9602 2.47065 42.5V31.5241C2.47049 31.3028 2.55833 31.0905 2.71482 30.934L6.98229 26.6666H44.6256L48.8931 30.9341ZM45.804 24.9999V24.1666C45.804 23.7064 46.1771 23.3333 46.6373 23.3333H48.304C48.7642 23.3333 49.1373 23.7064 49.1373 24.1666C49.1373 24.6268 48.7642 24.9999 48.304 24.9999H45.804Z" fill="#303030"/>
<path d="M49.1371 0H2.47052C1.55003 0 0.803833 0.746199 0.803833 1.66669V3.33337C0.803833 5.17435 2.29623 6.66674 4.1372 6.66674H8.30388V7.50004C8.30388 7.96025 8.67698 8.33335 9.13718 8.33335C9.59738 8.33335 9.97048 7.96025 9.97048 7.50004V6.66674H14.9705V7.50004C14.9705 7.96025 15.3436 8.33335 15.8038 8.33335C16.264 8.33335 16.6371 7.96025 16.6371 7.50004V6.66674H21.637V7.50004C21.637 7.96025 22.0101 8.33335 22.4703 8.33335C22.9305 8.33335 23.3036 7.96025 23.3036 7.50004V6.66674H28.3036V7.50004C28.3036 7.96025 28.6767 8.33335 29.1369 8.33335C29.5971 8.33335 29.9702 7.96025 29.9702 7.50004V6.66674H34.9702V7.50004C34.9702 7.96025 35.3433 8.33335 35.8035 8.33335C36.2637 8.33335 36.6368 7.96025 36.6368 7.50004V6.66674H41.6368V7.50004C41.6368 7.96025 42.0099 8.33335 42.4701 8.33335C42.9303 8.33335 43.3034 7.96025 43.3034 7.50004V6.66674H47.4701C49.311 6.66674 50.8034 5.17435 50.8034 3.33337V1.66669C50.8038 0.746199 50.0576 0 49.1371 0ZM49.1371 3.33337C49.1371 4.25386 48.3909 5.00006 47.4705 5.00006H4.1372C3.21672 5.00006 2.47052 4.25386 2.47052 3.33337V1.66669H49.1371V3.33337Z" fill="#303030"/>
<path fill-rule="evenodd" clip-rule="evenodd" d="M13.3039 10.8335V9.1668C13.3039 8.7066 12.9308 8.3335 12.4706 8.3335C12.0104 8.3335 11.6373 8.7066 11.6373 9.1668V10.8335C11.6373 11.2937 12.0104 11.6668 12.4706 11.6668C12.9308 11.6668 13.3039 11.2937 13.3039 10.8335Z" fill="#303030"/>
<path fill-rule="evenodd" clip-rule="evenodd" d="M6.63731 10.8335V9.1668C6.63731 8.7066 6.26421 8.3335 5.804 8.3335C5.3438 8.3335 4.9707 8.7066 4.9707 9.1668V10.8335C4.9707 11.2937 5.3438 11.6668 5.804 11.6668C6.26421 11.6668 6.63731 11.2937 6.63731 10.8335Z" fill="#303030"/>
<path fill-rule="evenodd" clip-rule="evenodd" d="M46.6373 10.8335V9.1668C46.6373 8.7066 46.2642 8.3335 45.804 8.3335C45.3438 8.3335 44.9707 8.7066 44.9707 9.1668V10.8335C44.9707 11.2937 45.3438 11.6668 45.804 11.6668C46.2642 11.6668 46.6373 11.2937 46.6373 10.8335Z" fill="#303030"/>
<path fill-rule="evenodd" clip-rule="evenodd" d="M19.9707 10.8335V9.1668C19.9707 8.7066 19.5976 8.3335 19.1374 8.3335C18.6772 8.3335 18.3041 8.7066 18.3041 9.1668V10.8335C18.3041 11.2937 18.6772 11.6668 19.1374 11.6668C19.5976 11.6668 19.9707 11.2937 19.9707 10.8335Z" fill="#303030"/>
<path fill-rule="evenodd" clip-rule="evenodd" d="M26.6373 10.8335V9.1668C26.6373 8.7066 26.2642 8.3335 25.804 8.3335C25.3438 8.3335 24.9707 8.7066 24.9707 9.1668V10.8335C24.9707 11.2937 25.3438 11.6668 25.804 11.6668C26.2642 11.6668 26.6373 11.2937 26.6373 10.8335Z" fill="#303030"/>
<path fill-rule="evenodd" clip-rule="evenodd" d="M33.3039 10.8335V9.1668C33.3039 8.7066 32.9308 8.3335 32.4706 8.3335C32.0104 8.3335 31.6373 8.7066 31.6373 9.1668V10.8335C31.6373 11.2937 32.0104 11.6668 32.4706 11.6668C32.9308 11.6668 33.3039 11.2937 33.3039 10.8335Z" fill="#303030"/>
<path fill-rule="evenodd" clip-rule="evenodd" d="M39.9707 10.8335V9.1668C39.9707 8.7066 39.5976 8.3335 39.1374 8.3335C38.6772 8.3335 38.3041 8.7066 38.3041 9.1668V10.8335C38.3041 11.2937 38.6772 11.6668 39.1374 11.6668C39.5976 11.6668 39.9707 11.2937 39.9707 10.8335Z" fill="#303030"/>
<path fill-rule="evenodd" clip-rule="evenodd" d="M16.6373 12.5V10.8333C16.6373 10.3731 16.2642 10 15.804 10C15.3438 10 14.9707 10.3731 14.9707 10.8333V12.5C14.9707 12.9602 15.3438 13.3333 15.804 13.3333C16.2642 13.3333 16.6373 12.9602 16.6373 12.5Z" fill="#303030"/>
<path fill-rule="evenodd" clip-rule="evenodd" d="M9.13738 13.3333C9.59758 13.3333 9.97068 12.9602 9.97068 12.5V10.8333C9.97068 10.3731 9.59758 10 9.13738 10C8.67718 10 8.30408 10.3731 8.30408 10.8333V12.5C8.30408 12.9602 8.67718 13.3333 9.13738 13.3333Z" fill="#303030"/>
<path fill-rule="evenodd" clip-rule="evenodd" d="M23.3039 12.5V10.8333C23.3039 10.3731 22.9308 10 22.4706 10C22.0104 10 21.6373 10.3731 21.6373 10.8333V12.5C21.6373 12.9602 22.0104 13.3333 22.4706 13.3333C22.9308 13.3333 23.3039 12.9602 23.3039 12.5Z" fill="#303030"/>
<path fill-rule="evenodd" clip-rule="evenodd" d="M29.9707 12.5V10.8333C29.9707 10.3731 29.5976 10 29.1374 10C28.6772 10 28.3041 10.3731 28.3041 10.8333V12.5C28.3041 12.9602 28.6772 13.3333 29.1374 13.3333C29.5976 13.3333 29.9707 12.9602 29.9707 12.5Z" fill="#303030"/>
<path fill-rule="evenodd" clip-rule="evenodd" d="M36.6373 12.5V10.8333C36.6373 10.3731 36.2642 10 35.804 10C35.3438 10 34.9707 10.3731 34.9707 10.8333V12.5C34.9707 12.9602 35.3438 13.3333 35.804 13.3333C36.2642 13.3333 36.6373 12.9602 36.6373 12.5Z" fill="#303030"/>
<path fill-rule="evenodd" clip-rule="evenodd" d="M43.304 12.5V10.8333C43.304 10.3731 42.9309 10 42.4707 10C42.0105 10 41.6375 10.3731 41.6375 10.8333V12.5C41.6375 12.9602 42.0105 13.3333 42.4707 13.3333C42.9309 13.3333 43.304 12.9602 43.304 12.5Z" fill="#303030"/>
</g>
<defs>
<clipPath id="clip0">
<rect width="50" height="50" fill="white" transform="translate(0.803833)"/>
</clipPath>
</defs>
</svg>
