<svg width="51" height="50" viewBox="0 0 51 50" fill="none" xmlns="http://www.w3.org/2000/svg">
<path d="M19.4586 13.1148H19.1676C20.8422 11.7615 21.9176 9.69344 21.9176 7.37705C21.9176 3.30902 18.6086 0 14.5406 0C10.4725 0 7.16351 3.30902 7.16351 7.37705C7.16351 9.69344 8.23892 11.7615 9.91351 13.1148H9.62253C7.36269 13.1148 5.52417 14.9533 5.52417 17.2131V26.2295H10.4422V28.3746L7.88155 28.6951L8.08483 30.3213L10.4422 30.027V31.6541L7.88155 31.9746L8.08483 33.6008L10.4422 33.3057V34.9328L7.88155 35.2533L8.08483 36.8795L10.4422 36.5844V38.332C8.94548 39.5352 7.98319 41.377 7.98319 43.4426C7.98319 47.0582 10.925 50 14.5406 50C18.1561 50 21.0979 47.0582 21.0979 43.4426C21.0979 41.377 20.1356 39.5344 18.6389 38.332V35.5598L21.1996 35.2393L20.9963 33.6131L18.6389 33.9074V32.2803L21.1996 31.9598L20.9963 30.3336L18.6389 30.6287V29.0016L21.1996 28.6811L20.9963 27.0549L18.6389 27.35V26.2295H23.557V17.2131C23.557 14.9533 21.7184 13.1148 19.4586 13.1148ZM8.80286 7.37705C8.80286 4.21393 11.3774 1.63934 14.5406 1.63934C17.7037 1.63934 20.2783 4.21393 20.2783 7.37705C20.2783 10.5402 17.7037 13.1148 14.5406 13.1148C11.3774 13.1148 8.80286 10.5402 8.80286 7.37705ZM19.4586 43.4426C19.4586 46.1549 17.2529 48.3607 14.5406 48.3607C11.8283 48.3607 9.62253 46.1549 9.62253 43.4426C9.62253 40.7303 11.8283 38.5246 14.5406 38.5246C17.2529 38.5246 19.4586 40.7303 19.4586 43.4426ZM16.9996 29.2066V30.8336L12.0815 31.4484V29.8213L16.9996 29.2066ZM12.0815 28.1697V26.2295H16.9996V27.5549L12.0815 28.1697ZM16.9996 32.4852V34.1123L12.0815 34.727V33.1L16.9996 32.4852ZM16.9996 35.7648V37.368C16.2397 37.059 15.4102 36.8852 14.5406 36.8852C13.6709 36.8852 12.8414 37.059 12.0815 37.368V36.3795L16.9996 35.7648ZM21.9176 21.3115H20.2783V22.9508H21.9176V24.5902H7.16351V22.9508H18.6389V21.3115H7.16351V17.2131C7.16351 15.8574 8.26679 14.7541 9.62253 14.7541H19.4586C20.8143 14.7541 21.9176 15.8574 21.9176 17.2131V21.3115Z" fill="#303030"/>
<path d="M14.5406 11.4755C15.4037 11.4755 16.2291 11.2108 16.9283 10.7083L15.9726 9.37635C15.5537 9.67717 15.0587 9.83618 14.5406 9.83618C13.1849 9.83618 12.0816 8.73291 12.0816 7.37717C12.0816 6.02143 13.1849 4.91815 14.5406 4.91815C15.8964 4.91815 16.9996 6.02143 16.9996 7.37717C16.9996 7.80832 16.8865 8.23209 16.6734 8.60176L18.0931 9.42143C18.4505 8.80258 18.639 8.09602 18.639 7.37717C18.639 5.11733 16.8005 3.27881 14.5406 3.27881C12.2808 3.27881 10.4423 5.11733 10.4423 7.37717C10.4423 9.637 12.2808 11.4755 14.5406 11.4755Z" fill="#303030"/>
<path d="M14.5405 40.1641C12.7323 40.1641 11.2618 41.6346 11.2618 43.4428C11.2618 45.251 12.7323 46.7214 14.5405 46.7214C16.3487 46.7214 17.8192 45.251 17.8192 43.4428C17.8192 41.6346 16.3487 40.1641 14.5405 40.1641ZM14.5405 45.0821C13.6364 45.0821 12.9012 44.3469 12.9012 43.4428C12.9012 42.5387 13.6364 41.8034 14.5405 41.8034C15.4446 41.8034 16.1799 42.5387 16.1799 43.4428C16.1799 44.3469 15.4446 45.0821 14.5405 45.0821Z" fill="#303030"/>
<path d="M44.8685 26.2295V17.2131C44.8685 14.9533 43.03 13.1148 40.7701 13.1148H40.4791C42.1537 11.7615 43.2291 9.69344 43.2291 7.37705C43.2291 3.30902 39.9201 0 35.8521 0C31.7841 0 28.475 3.30902 28.475 7.37705C28.475 9.69344 29.5504 11.7615 31.225 13.1148H30.9341C28.6742 13.1148 26.8357 14.9533 26.8357 17.2131V26.2295H31.7537V28.3746L29.1931 28.6951L29.3963 30.3213L31.7537 30.027V31.6541L29.1931 31.9746L29.3963 33.6008L31.7537 33.3057V34.9328L29.1931 35.2533L29.3963 36.8795L31.7537 36.5844V38.332C30.257 39.5352 29.2947 41.377 29.2947 43.4426C29.2947 47.0582 32.2365 50 35.8521 50C39.4677 50 42.4095 47.0582 42.4095 43.4426C42.4095 41.377 41.4472 39.5344 39.9504 38.332V35.5598L42.5111 35.2393L42.3078 33.6131L39.9504 33.9074V32.2803L42.5111 31.9598L42.3078 30.3336L39.9504 30.6287V29.0016L42.5111 28.6811L42.3078 27.0549L39.9504 27.35V26.2295H44.8685ZM30.1144 7.37705C30.1144 4.21393 32.689 1.63934 35.8521 1.63934C39.0152 1.63934 41.5898 4.21393 41.5898 7.37705C41.5898 10.5402 39.0152 13.1148 35.8521 13.1148C32.689 13.1148 30.1144 10.5402 30.1144 7.37705ZM40.7701 43.4426C40.7701 46.1549 38.5644 48.3607 35.8521 48.3607C33.1398 48.3607 30.9341 46.1549 30.9341 43.4426C30.9341 40.7303 33.1398 38.5246 35.8521 38.5246C38.5644 38.5246 40.7701 40.7303 40.7701 43.4426ZM38.3111 29.2066V30.8336L33.3931 31.4484V29.8213L38.3111 29.2066ZM33.3931 28.1697V26.2295H38.3111V27.5549L33.3931 28.1697ZM38.3111 32.4852V34.1123L33.3931 34.727V33.1L38.3111 32.4852ZM38.3111 35.7648V37.368C37.5513 37.059 36.7218 36.8852 35.8521 36.8852C34.9824 36.8852 34.1529 37.059 33.3931 37.368V36.3795L38.3111 35.7648ZM28.475 24.5902V22.9508H39.9504V21.3115H28.475V17.2131C28.475 15.8574 29.5783 14.7541 30.9341 14.7541H40.7701C42.1259 14.7541 43.2291 15.8574 43.2291 17.2131V21.3115H41.5898V22.9508H43.2291V24.5902H28.475Z" fill="#303030"/>
<path d="M35.852 11.4755C38.1119 11.4755 39.9504 9.637 39.9504 7.37717C39.9504 5.11733 38.1119 3.27881 35.852 3.27881C33.5922 3.27881 31.7537 5.11733 31.7537 7.37717C31.7537 9.637 33.5922 11.4755 35.852 11.4755ZM35.852 4.91815C37.2078 4.91815 38.311 6.02143 38.311 7.37717C38.311 8.73291 37.2078 9.83618 35.852 9.83618C34.4963 9.83618 33.393 8.73291 33.393 7.37717C33.393 6.02143 34.4963 4.91815 35.852 4.91815Z" fill="#303030"/>
<path d="M35.8521 40.1641C34.0439 40.1641 32.5734 41.6346 32.5734 43.4428C32.5734 45.251 34.0439 46.7214 35.8521 46.7214C36.4717 46.7214 37.075 46.5477 37.5971 46.219L36.7234 44.8329C36.4635 44.996 36.1619 45.0821 35.8521 45.0821C34.948 45.0821 34.2127 44.3469 34.2127 43.4428C34.2127 42.5387 34.948 41.8034 35.8521 41.8034C36.7562 41.8034 37.4914 42.5387 37.4914 43.4428C37.4914 43.6534 37.4521 43.8583 37.3742 44.0518L38.8963 44.66C39.0521 44.2723 39.1307 43.8624 39.1307 43.4428C39.1307 41.6346 37.6603 40.1641 35.8521 40.1641Z" fill="#303030"/>
</svg>
