<svg width="25" height="24" viewBox="0 0 25 24" fill="none" xmlns="http://www.w3.org/2000/svg">
<path d="M10.0213 15.58L6.47662 12.0964C6.08853 11.715 5.46026 11.7202 5.07082 12.1003C4.66969 12.4917 4.66182 13.1429 5.06156 13.5358L10.0213 18.41L19.0969 9.39256C19.4919 9.00001 19.4862 8.35639 19.0889 7.96601C18.6983 7.58206 18.0675 7.58003 17.679 7.96625L10.0213 15.58Z" fill="#C2D1D9"/>
<mask id="mask0_3_1754" style="mask-type:alpha" maskUnits="userSpaceOnUse" x="4" y="7" width="16" height="12">
<path d="M10.0213 15.58L6.47662 12.0964C6.08853 11.715 5.46026 11.7202 5.07082 12.1003C4.66969 12.4917 4.66182 13.1429 5.06156 13.5358L10.0213 18.41L19.0969 9.39256C19.4919 9.00001 19.4862 8.35639 19.0889 7.96601C18.6983 7.58206 18.0675 7.58003 17.679 7.96625L10.0213 15.58Z" fill="white"/>
</mask>
<g mask="url(#mask0_3_1754)">
<rect x="0.263184" width="24.4211" height="24" fill="#303030"/>
</g>
</svg>
