<svg width="51" height="50" viewBox="0 0 51 50" fill="none" xmlns="http://www.w3.org/2000/svg">
<g clip-path="url(#clip0)">
<path d="M44.3828 39.9995C44.9222 39.9995 45.3594 39.5623 45.3594 39.0229C45.3594 38.4836 44.9222 38.0464 44.3828 38.0464C43.8435 38.0464 43.4062 38.4836 43.4062 39.0229C43.4062 39.5623 43.8435 39.9995 44.3828 39.9995Z" fill="#303030"/>
<path d="M6.09986 39.9995C6.6392 39.9995 7.07642 39.5623 7.07642 39.0229C7.07642 38.4836 6.6392 38.0464 6.09986 38.0464C5.56051 38.0464 5.12329 38.4836 5.12329 39.0229C5.12329 39.5623 5.56051 39.9995 6.09986 39.9995Z" fill="#303030"/>
<path d="M49.4328 36.1741C49.4238 36.1285 30.2684 2.9292 30.2684 2.9292C29.226 1.12236 27.281 0 25.1922 0C24.168 0 23.1555 0.27207 22.264 0.786719C21.3603 1.3083 20.6293 2.04521 20.1215 2.92646L0.979528 36.0801C-0.635902 38.8783 0.326207 42.4702 3.12435 44.0856C4.00121 44.5919 4.99535 44.9216 6.00248 44.9216H21.8655L20.6635 48.0467H10.9823C10.4429 48.0467 10.0057 48.484 10.0057 49.0232C10.0057 49.5625 10.443 49.9998 10.9823 49.9998H39.4991C40.0384 49.9998 40.4756 49.5625 40.4756 49.0232C40.4756 48.484 40.0383 48.0467 39.4991 48.0467H29.8178L28.6158 44.9216H44.3362C47.5671 44.9216 50.1957 42.2918 50.1957 39.0608C50.1957 38.0121 49.9174 37.0266 49.4328 36.1741ZM21.4206 4.85215C21.691 3.84277 22.3371 2.99971 23.2407 2.47832C23.8357 2.13477 24.5105 1.95322 25.1923 1.95322C26.5852 1.95322 27.882 2.70127 28.5768 3.90547L45.5617 33.3275C45.5561 33.3264 45.5505 33.3273 45.545 33.3272C45.1547 33.2451 44.7505 33.2023 44.3363 33.2023H36.4584L21.8109 7.8207C21.289 6.9166 21.1503 5.86172 21.4206 4.85215ZM34.2032 33.2023H16.1745L25.1908 17.5858L34.2032 33.2023ZM6.04964 42.9172C5.36879 42.9172 4.69496 42.7358 4.10101 42.3931C2.23568 41.316 1.59418 38.9222 2.67113 37.0567L19.6249 7.6916C19.7503 8.07148 19.9146 8.4415 20.1192 8.7959L24.0632 15.6299L9.43715 40.9632C8.74134 42.1685 7.4433 42.9172 6.04964 42.9172ZM22.7562 48.0468L23.9581 44.9217H26.5231L27.725 48.0468H22.7562ZM44.3362 42.9685H10.3743C10.6595 42.6755 10.9135 42.3147 11.1286 41.9421L15.0468 35.1557H44.3361C46.4901 35.1557 48.2425 36.9081 48.2425 39.0621C48.2425 41.2161 46.4901 42.9685 44.3362 42.9685Z" fill="#303030"/>
<path d="M24.7165 6.65364C25.1836 6.92337 25.7808 6.76331 26.0506 6.29612C26.3203 5.82903 26.1602 5.23177 25.6931 4.96204C25.2261 4.69241 24.6288 4.85237 24.3591 5.31946C24.0893 5.78675 24.2494 6.38401 24.7165 6.65364Z" fill="#303030"/>
</g>
<defs>
<clipPath id="clip0">
<rect width="50" height="50" fill="white" transform="translate(0.196289)"/>
</clipPath>
</defs>
</svg>
