<svg width="89" height="33" viewBox="0 0 89 33" fill="none" xmlns="http://www.w3.org/2000/svg">
<path d="M7.05914 12.1889H32.7229C34.8914 12.1889 37.9723 12.6705 39.1538 14.6267V14.5816C39.1538 14.5966 39.1538 14.6117 39.1687 14.6267C39.1687 14.6117 39.1687 14.5966 39.1837 14.5816V14.6267C40.3502 12.6705 43.431 12.1889 45.6146 12.1889H59.1344V12.2491H59.1792V32.1878L52.4044 32.1728V17.2301H46.796C45.1509 17.2301 43.9844 18.464 43.3264 19.412L42.773 20.345C42.7431 20.3902 42.7431 20.4052 42.7281 20.4202L42.8627 20.646H42.8926H42.8777L49.9218 32.1427H49.9068L49.9218 32.1577H49.8171V32.1728L42.7431 32.1878L39.1687 26.3341L35.5943 32.1878L28.5054 32.1728V32.1577H28.4007L28.4157 32.1427H28.4007L35.4448 20.646H35.4597L35.5943 20.4202C35.5794 20.4052 35.5794 20.3902 35.5644 20.345L34.9961 19.412C34.3381 18.464 33.1715 17.2301 31.5264 17.2301C23.3757 17.2301 15.2099 17.2301 7.05914 17.2301V32.1728H0.00012207V6.54592C0.00012207 2.42274 2.88654 0 6.86472 0C10.9326 0 15.0155 0 19.0535 0.285914V5.61293H9.58663C8.03125 5.61293 7.05914 6.35029 7.05914 7.99053V12.1889Z" fill="#303030"/>
<path d="M68.4524 5.50734V12.1736H74.1355V17.2148H68.4524V24.799C68.4524 25.6266 68.6319 26.2286 69.0207 26.5897C69.4096 26.9509 70.0377 27.1314 70.935 27.1314H73.8813L74.6141 31.7663C74.0608 31.9468 73.3877 32.1124 72.5951 32.2478C71.7875 32.3832 70.9949 32.4886 70.2022 32.5788C69.3946 32.6541 68.7216 32.6842 68.1683 32.6842C66.1044 32.6842 64.5042 32.1274 63.3526 31.0139C62.201 29.9003 61.6327 28.3503 61.6327 26.3339L61.5878 5.50734H68.4524Z" fill="#303030"/>
<path d="M25.7984 19.7585V32.128H19.0385V19.7585H25.7984Z" fill="#303030"/>
<path d="M22.4192 10.8047C24.1372 10.8047 25.53 9.40332 25.53 7.67467C25.53 5.94602 24.1372 4.54467 22.4192 4.54467C20.7012 4.54467 19.3085 5.94602 19.3085 7.67467C19.3085 9.40332 20.7012 10.8047 22.4192 10.8047Z" fill="#303030"/>
<path d="M55.7987 10.8962C57.5167 10.8962 58.9094 9.49486 58.9094 7.76621C58.9094 6.03756 57.5167 4.63621 55.7987 4.63621C54.0806 4.63621 52.6879 6.03756 52.6879 7.76621C52.6879 9.49486 54.0806 10.8962 55.7987 10.8962Z" fill="#303030"/>
<path d="M88.2374 2.16704H82.9581V4.96599C83.1974 4.68007 83.5114 4.43931 83.9451 4.25873C84.3639 4.07815 84.8126 3.98786 85.2911 3.98786C86.1586 3.98786 86.8764 4.18349 87.4148 4.55969C87.9682 4.95094 88.372 5.43248 88.6262 6.0344C88.8805 6.62128 89.0001 7.26835 89.0001 7.93046C89.0001 9.1945 88.6412 10.2027 87.9383 10.9702C87.2204 11.7226 86.2184 12.1138 84.9023 12.1138C83.661 12.1138 82.6739 11.7978 81.9411 11.1808C81.2083 10.5488 80.7895 9.73623 80.6848 8.74306H82.8983C83.0029 9.17945 83.2123 9.52556 83.5563 9.78138C83.9003 10.0522 84.334 10.1726 84.8724 10.1726C85.5155 10.1726 85.9941 9.977 86.3231 9.5707C86.6371 9.1644 86.8017 8.63772 86.8017 7.97561C86.8017 7.29844 86.6371 6.77176 86.3081 6.42565C85.9791 6.0645 85.4856 5.89897 84.8574 5.89897C84.3938 5.89897 84.0199 6.00431 83.7059 6.23003C83.4067 6.4708 83.1974 6.77176 83.0628 7.14796H80.8793V0.1506H88.2374V2.16704Z" fill="#303030"/>
<path d="M70.545 9.78093V7.99021L75.8542 0.330739H78.5163V7.79459H79.937V9.78093H78.5163V12.1736H76.2281V9.78093H70.545ZM76.3776 2.78358L73.0425 7.79459H76.3776V2.78358Z" fill="#303030"/>
<path d="M76.6766 31.1187V31.3444H76.3625V32.2774H76.0784V31.3444H75.7793V31.1187H76.6766Z" fill="#303030"/>
<path d="M78.1134 31.1187V32.2774H77.8442V31.5852L77.575 32.2774H77.3507L77.0965 31.5702V32.2774H76.8123V31.1187H77.1413L77.4704 31.9163L77.7844 31.1187H78.1134Z" fill="#303030"/>
</svg>
