<svg width="368" height="368" viewBox="0 0 368 368" fill="none" xmlns="http://www.w3.org/2000/svg">
<path d="M184 368C285.62 368 368 285.62 368 184C368 82.3796 285.62 0 184 0C82.3796 0 0 82.3796 0 184C0 285.62 82.3796 368 184 368Z" fill="white"/>
<g clip-path="url(#clip0)">
<path d="M182.451 94.0863C185.286 94.0863 187.585 91.7873 187.585 88.9524V62.8001C187.585 59.9652 185.287 57.6662 182.451 57.6662C179.616 57.6662 177.317 59.9647 177.317 62.8001V88.9524C177.318 91.7873 179.616 94.0863 182.451 94.0863Z" fill="#303030"/>
<path d="M143.853 102.52C144.829 104.069 146.496 104.917 148.201 104.917C149.136 104.917 150.083 104.661 150.933 104.126C153.332 102.614 154.05 99.444 152.539 97.045L138.86 75.3413C137.348 72.9427 134.178 72.2234 131.78 73.7354C129.381 75.2468 128.663 78.417 130.174 80.8161L143.853 102.52Z" fill="#303030"/>
<path d="M213.986 104.127C214.836 104.662 215.782 104.917 216.717 104.917C218.422 104.917 220.09 104.068 221.066 102.518L234.731 80.8141C236.241 78.4145 235.521 75.2453 233.121 73.7339C230.721 72.224 227.552 72.9448 226.041 75.3434L212.377 97.047C210.867 99.4471 211.587 102.616 213.986 104.127Z" fill="#303030"/>
<path d="M312.227 178.532L303.307 162.774C301.91 160.305 298.777 159.438 296.311 160.835C293.843 162.232 292.976 165.364 294.372 167.831L303.289 183.583C303.735 184.375 303.619 185.138 303.51 185.523C303.406 185.893 303.117 186.576 302.362 186.993L288.615 194.608C287.393 195.283 285.799 194.857 285.133 193.682L281.641 187.504C281.626 187.476 281.61 187.45 281.595 187.423L245.488 123.56C245.042 122.774 245.155 122.02 245.262 121.641C245.365 121.274 245.651 120.596 246.406 120.178L260.17 112.562C261.407 111.877 262.962 112.293 263.638 113.491L271.685 127.708C273.082 130.176 276.215 131.043 278.682 129.647C281.15 128.251 282.017 125.118 280.621 122.651L272.577 108.44C269.147 102.358 261.353 100.177 255.201 103.577L241.438 111.194C238.459 112.839 236.308 115.56 235.38 118.855C234.504 121.962 234.817 125.206 236.251 128.053L228.669 130.25C225.439 131.185 223.479 131.691 222.391 131.691C222.387 131.691 222.382 131.691 222.378 131.691C221.629 131.689 220.812 131.403 218.481 130.52C217.424 130.119 216.107 129.62 214.488 129.056L201.055 124.36C193.626 121.765 190.275 121.904 185.42 122.348L162.515 124.398C152.073 125.323 145.416 127.678 141.741 131.763L128.687 127.981C130.092 125.147 130.393 121.934 129.526 118.855C128.597 115.562 126.447 112.842 123.472 111.196L109.716 103.576C103.56 100.173 95.7608 102.355 92.3298 108.435L52.6938 178.525C50.997 181.512 50.5771 184.987 51.5125 188.309C52.4417 191.608 54.5928 194.331 57.5654 195.975L71.3212 203.595C73.288 204.682 75.4248 205.198 77.5333 205.198C82.0126 205.198 86.3672 202.868 88.7078 198.736L90.1612 196.165C94.1277 197.911 97.4581 200.447 99.7278 203.451C97.5109 206.041 96.1145 209.238 95.7228 212.715C95.2053 217.314 96.5042 221.826 99.3802 225.422C102.232 228.987 106.309 231.237 110.868 231.767C110.386 236.326 111.69 240.794 114.544 244.35C117.494 248.038 121.663 250.19 126.024 250.698C125.544 255.251 126.843 259.714 129.688 263.272C132.538 266.846 136.617 269.1 141.181 269.63C140.698 274.193 142.002 278.663 144.856 282.22C148.257 286.473 153.279 288.687 158.349 288.686C162.134 288.686 165.945 287.452 169.127 284.911L179.877 276.309C180.73 275.628 181.506 274.875 182.204 274.064L188.344 278.969C191.519 281.503 195.322 282.734 199.102 282.734C204.174 282.733 209.204 280.516 212.611 276.259C214.406 274.015 215.543 271.453 216.056 268.808C217.851 269.429 219.747 269.75 221.679 269.75C222.327 269.75 222.979 269.714 223.633 269.642C228.233 269.131 232.346 266.869 235.204 263.284C238.064 259.722 239.368 255.255 238.885 250.696C243.244 250.188 247.415 248.036 250.374 244.35C253.321 240.665 254.503 236.129 254.04 231.766C258.597 231.235 262.673 228.986 265.517 225.429C268.395 221.842 269.7 217.337 269.19 212.742C268.803 209.254 267.405 206.046 265.185 203.449C267.448 200.446 270.771 197.907 274.74 196.162L276.197 198.738C278.536 202.869 282.888 205.198 287.369 205.198C289.478 205.197 291.617 204.681 293.586 203.592L307.334 195.977C310.306 194.334 312.456 191.615 313.389 188.322C314.329 185.003 313.918 181.528 312.227 178.532ZM79.7717 193.679C79.1043 194.858 77.5092 195.283 76.2929 194.61L62.5376 186.991C61.7865 186.576 61.5 185.895 61.3953 185.526C61.288 185.143 61.1735 184.384 61.6263 183.588L101.268 113.484C101.722 112.68 102.578 112.229 103.466 112.229C103.898 112.229 104.338 112.335 104.743 112.56L118.495 120.177C118.496 120.178 118.498 120.179 118.499 120.18C119.252 120.596 119.538 121.275 119.642 121.642C119.749 122.021 119.861 122.775 119.41 123.569L79.7717 193.679ZM117.236 220.099C115.788 221.258 113.96 221.783 112.092 221.575C110.223 221.367 108.557 220.456 107.399 219.01C106.24 217.559 105.717 215.732 105.927 213.864C106.136 212.004 107.047 210.346 108.502 209.188L127.723 193.825C130.739 191.416 135.155 191.912 137.566 194.923C138.725 196.372 139.248 198.197 139.039 200.059C138.83 201.915 137.919 203.571 136.472 204.722C136.44 204.747 136.413 204.775 136.382 204.802L117.241 220.095C117.239 220.096 117.238 220.098 117.236 220.099ZM122.557 237.931C121.398 236.487 120.874 234.667 121.081 232.806C121.288 230.944 122.201 229.279 123.649 228.117L123.651 228.116C123.652 228.115 123.653 228.114 123.654 228.114C123.654 228.114 123.654 228.113 123.655 228.113L151.34 205.994C154.356 203.585 158.773 204.077 161.183 207.092C162.341 208.539 162.864 210.362 162.657 212.223C162.45 214.087 161.535 215.752 160.083 216.912L132.405 239.023C129.385 241.433 124.97 240.947 122.557 237.931ZM142.404 259.437C140.535 259.229 138.87 258.318 137.712 256.865C136.554 255.417 136.031 253.595 136.238 251.733C136.445 249.871 137.358 248.207 138.809 247.047C138.81 247.046 138.811 247.045 138.812 247.044L157.971 231.739C157.994 231.721 158.018 231.706 158.041 231.688C161.049 229.28 165.465 229.77 167.878 232.778C169.037 234.228 169.56 236.055 169.351 237.923C169.141 239.783 168.23 241.441 166.775 242.599L147.555 257.962C146.103 259.122 144.273 259.643 142.404 259.437ZM176.04 263.605C175.832 265.467 174.92 267.128 173.467 268.289L162.717 276.892C159.697 279.302 155.281 278.817 152.87 275.8C151.711 274.357 151.187 272.536 151.394 270.671C151.6 268.807 152.512 267.144 153.958 265.989C153.96 265.988 153.962 265.987 153.963 265.986L164.71 257.395C164.716 257.39 164.722 257.386 164.728 257.382C167.745 254.974 172.161 255.468 174.572 258.48C175.726 259.925 176.248 261.744 176.04 263.605ZM257.504 219.009C256.347 220.456 254.681 221.367 252.812 221.575C250.945 221.785 249.115 221.259 247.668 220.099C247.667 220.098 247.666 220.098 247.665 220.097C247.664 220.097 247.663 220.096 247.663 220.095L233.926 209.12C231.71 207.349 228.48 207.711 226.71 209.926C224.941 212.14 225.302 215.371 227.516 217.141L241.249 228.113C244.262 230.526 244.758 234.933 242.361 237.93C239.942 240.945 235.526 241.435 232.511 239.021L217.61 227.129C215.394 225.361 212.164 225.724 210.395 227.94C208.627 230.156 208.99 233.386 211.206 235.155L226.1 247.04C227.551 248.203 228.465 249.869 228.672 251.733C228.879 253.594 228.355 255.414 227.187 256.87C226.032 258.318 224.368 259.229 222.5 259.437C220.629 259.643 218.799 259.121 217.352 257.966L209.938 252.036C209.925 252.026 209.914 252.015 209.901 252.005L203.636 246.997L202.465 246.06C200.25 244.289 197.02 244.649 195.25 246.863C195.028 247.14 194.84 247.433 194.685 247.737C193.942 249.189 193.954 250.893 194.652 252.322C194.974 252.984 195.44 253.588 196.053 254.079L203.508 260.041C206.5 262.457 206.989 266.849 204.593 269.845C202.182 272.859 197.766 273.351 194.751 270.946L186.292 264.189C186.645 259.795 185.343 255.509 182.589 252.066C180.877 249.927 178.754 248.306 176.423 247.22C178.132 244.849 179.216 242.065 179.553 239.07C180.071 234.473 178.772 229.961 175.891 226.358C174.178 224.225 172.058 222.608 169.731 221.524C171.443 219.146 172.528 216.356 172.862 213.358C173.372 208.77 172.073 204.267 169.202 200.677C164.262 194.501 155.908 192.623 148.955 195.574C148.398 193.019 147.261 190.608 145.582 188.508C139.638 181.081 128.753 179.866 121.314 185.801L107.567 196.789C104.459 192.823 100.233 189.533 95.2366 187.186L123.514 137.171L138.57 141.534C138.638 142.339 138.769 143.186 138.987 144.084C142.631 159.068 156.428 166.051 174.994 162.31C190.637 159.162 197.077 163.851 209.903 173.191C211.234 174.16 212.617 175.166 214.064 176.203C223.288 182.821 233.145 190.599 239.754 195.871L256.419 209.189C257.867 210.345 258.778 212.008 258.985 213.874C259.192 215.738 258.668 217.559 257.504 219.009ZM257.345 196.786L246.161 187.849C239.461 182.504 229.465 174.617 220.047 167.859C218.619 166.837 217.258 165.846 215.948 164.892C202.648 155.207 193.036 148.209 172.968 152.245C166.826 153.483 152.192 154.93 148.965 141.66C148.51 139.786 148.972 139.143 149.169 138.868C149.855 137.911 152.617 135.582 163.423 134.625L186.353 132.573C190.09 132.232 191.964 132.06 197.667 134.052L211.101 138.749C212.595 139.27 213.789 139.722 214.843 140.122C221.312 142.572 223.026 142.572 231.524 140.112L241.428 137.242L269.667 187.19C264.67 189.534 260.448 192.821 257.345 196.786Z" fill="#303030"/>
<path d="M287.479 150.381C290.314 150.381 292.613 148.075 292.613 145.24C292.613 142.404 290.314 140.106 287.479 140.106C284.644 140.106 282.345 142.405 282.345 145.24V145.254C282.345 148.09 284.644 150.381 287.479 150.381Z" fill="#303030"/>
</g>
<defs>
<clipPath id="clip0">
<rect width="262.857" height="262.857" fill="white" transform="translate(51.0253 41.7479)"/>
</clipPath>
</defs>
</svg>
