<svg width="51" height="50" viewBox="0 0 51 50" fill="none" xmlns="http://www.w3.org/2000/svg">
<g clip-path="url(#clip0)">
<path d="M34.8447 31.6665H16.7614C16.007 31.6658 15.3331 32.1381 15.0764 32.8475C14.8197 33.5569 15.0353 34.351 15.6155 34.8332L18.3163 37.0832C18.6383 37.3522 19.0443 37.4997 19.4639 37.4999H32.1422C32.5615 37.4998 32.9673 37.3522 33.2889 37.0832L35.9905 34.8332C36.5707 34.351 36.7864 33.5569 36.5296 32.8475C36.2729 32.1381 35.5991 31.6658 34.8447 31.6665ZM34.928 33.5532L32.2263 35.8032C32.2029 35.8224 32.1733 35.8324 32.143 35.8315H19.4655C19.4351 35.8324 19.4054 35.822 19.3822 35.8023L16.6805 33.5523C16.6359 33.5216 16.62 33.4631 16.643 33.414C16.656 33.3612 16.7055 33.3258 16.7596 33.3306H34.8429C34.8971 33.3258 34.9466 33.3612 34.9596 33.414C34.9834 33.4629 34.9682 33.5218 34.9237 33.5532H34.928V33.5532Z" fill="#303030"/>
<path d="M40.8279 32.0832L38.1179 34.3332C37.5357 34.8145 37.3186 35.6098 37.5757 36.32C37.8327 37.0304 38.5083 37.5026 39.2637 37.4999H45.8037C46.7242 37.4999 47.4704 36.7537 47.4704 35.8332V33.3332C47.4704 32.4127 46.7242 31.6665 45.8037 31.6665H41.9745C41.5555 31.6677 41.15 31.815 40.8279 32.0832ZM45.8038 33.3332V35.8332H39.2638C39.2093 35.8385 39.1593 35.803 39.1462 35.7498C39.1234 35.702 39.1394 35.6447 39.1837 35.6157L41.8946 33.3607C41.9177 33.3408 41.9475 33.3305 41.9779 33.3315L45.8038 33.3332Z" fill="#303030"/>
<path d="M10.7798 32.0832C10.459 31.8156 10.055 31.6683 9.63724 31.6665H5.80389C4.88341 31.6665 4.13721 32.4127 4.13721 33.3332V35.8332C4.13721 36.7537 4.88341 37.4999 5.80389 37.4999H12.3422C13.0972 37.5019 13.7723 37.0298 14.0294 36.3199C14.2864 35.6099 14.0701 34.815 13.4889 34.3332L10.7798 32.0832ZM12.4614 35.7498C12.4484 35.8029 12.3984 35.8384 12.3439 35.8331H5.80389V33.3331H9.63724C9.66767 33.332 9.69744 33.3425 9.72057 33.3623L12.4322 35.6173C12.4724 35.6488 12.4847 35.7043 12.4614 35.7498Z" fill="#303030"/>
<path fill-rule="evenodd" clip-rule="evenodd" d="M11.6374 40H5.80401C5.3438 40 4.9707 40.3731 4.9707 40.8333C4.9707 41.2935 5.3438 41.6666 5.80401 41.6666H11.6374C12.0976 41.6666 12.4707 41.2935 12.4707 40.8333C12.4707 40.3731 12.0976 40 11.6374 40Z" fill="#303030"/>
<path fill-rule="evenodd" clip-rule="evenodd" d="M45.8042 40H39.9709C39.5107 40 39.1376 40.3731 39.1376 40.8333C39.1376 41.2935 39.5107 41.6666 39.9709 41.6666H45.8042C46.2644 41.6666 46.6375 41.2935 46.6375 40.8333C46.6375 40.3731 46.2644 40 45.8042 40Z" fill="#303030"/>
<path fill-rule="evenodd" clip-rule="evenodd" d="M33.3042 40H18.3042C17.844 40 17.4709 40.3731 17.4709 40.8333C17.4709 41.2935 17.844 41.6666 18.3042 41.6666H33.3042C33.7645 41.6666 34.1375 41.2935 34.1375 40.8333C34.1375 40.3731 33.7645 40 33.3042 40Z" fill="#303030"/>
<path d="M50.8037 24.1667C50.8037 22.786 49.6844 21.6667 48.3037 21.6667H46.637C45.9105 21.6694 45.2216 21.9897 44.7512 22.5434L43.187 17.8567C42.8012 16.6956 41.9236 15.7634 40.7879 15.3084C40.7879 15.2042 40.8037 15.1043 40.8037 15.0001C40.8037 6.71571 34.088 0 25.8037 0C17.5194 0 10.8038 6.71571 10.8038 15C10.8038 15.1042 10.8171 15.2041 10.8196 15.3083C9.6847 15.7625 8.80735 16.6935 8.42121 17.8533L6.85623 22.5434C6.38586 21.9897 5.6969 21.6694 4.97039 21.6667H3.3037C1.92302 21.6667 0.803717 22.786 0.803717 24.1667C0.803717 25.5473 1.92302 26.6666 3.3037 26.6666H4.62534L1.54204 29.75C1.06814 30.2189 0.802241 30.8583 0.803717 31.525V42.5C0.808064 43.5556 1.47512 44.4947 2.4704 44.8466V47.5C2.4704 48.8807 3.5897 50 4.97039 50H10.8038C12.1844 50 13.3037 48.8807 13.3037 47.5V45H38.3037V47.5C38.3037 48.8807 39.423 50 40.8037 50H46.637C48.0177 50 49.137 48.8807 49.137 47.5V44.8466C50.1323 44.4948 50.7993 43.5556 50.8037 42.5V31.525C50.8052 30.8596 50.5402 30.2212 50.0678 29.7525L46.9845 26.6692H48.3037C48.9672 26.6692 49.6035 26.4054 50.0724 25.9361C50.5413 25.4666 50.8044 24.8301 50.8037 24.1667ZM41.6045 18.3809L43.8137 25H36.952C38.9353 22.7978 40.2182 20.0549 40.6369 17.1209C41.0892 17.4231 41.4292 17.866 41.6045 18.3809ZM25.8037 1.66669C33.1675 1.66669 39.137 7.63619 39.137 15C39.137 22.3638 33.1675 28.3333 25.8037 28.3333C18.4399 28.3333 12.4704 22.3638 12.4704 15C12.4791 7.6398 18.4436 1.67538 25.8037 1.66669ZM10.0037 18.3767C10.1794 17.8633 10.5191 17.422 10.9704 17.1208C11.3893 20.0549 12.672 22.7977 14.6554 25H7.79369L10.0037 18.3767ZM3.3037 25C2.8435 25 2.4704 24.6269 2.4704 24.1667C2.4704 23.7065 2.8435 23.3334 3.3037 23.3334H4.97039C5.43059 23.3334 5.80369 23.7065 5.80369 24.1667V25H3.3037ZM11.6371 47.5C11.6371 47.9602 11.264 48.3333 10.8038 48.3333H4.97039C4.51019 48.3333 4.13709 47.9602 4.13709 47.5V45H11.6371V47.5ZM47.4703 47.5C47.4703 47.9602 47.0972 48.3333 46.637 48.3333H40.8037C40.3435 48.3333 39.9704 47.9602 39.9704 47.5V45H47.4703V47.5ZM48.887 30.9308C49.0467 31.0873 49.1368 31.3014 49.137 31.525V42.5C49.137 42.9602 48.7639 43.3333 48.3037 43.3333H3.3037C2.8435 43.3333 2.4704 42.9602 2.4704 42.5V31.525C2.47065 31.3014 2.5607 31.0873 2.72039 30.9308L6.98204 26.6666H16.3987C21.8829 31.1111 29.7295 31.1111 35.2137 26.6666H44.6303L48.887 30.9308ZM45.8037 25V24.1667C45.8037 23.7065 46.1768 23.3334 46.637 23.3334H48.3037C48.7639 23.3334 49.137 23.7065 49.137 24.1667C49.137 24.6269 48.7639 25 48.3037 25H45.8037Z" fill="#303030"/>
<path d="M33.1725 15.9011H30.8519V13.6575H33.1725C33.5212 13.6575 33.8038 13.3735 33.8038 13.0226C33.8038 12.6717 33.5212 12.3875 33.1725 12.3875H30.8519V9.27439C30.8519 8.81996 30.7626 8.48641 30.5866 8.28323C30.4194 8.08994 30.1995 8 29.895 8C29.6044 8 29.3928 8.08932 29.2288 8.28141C29.0549 8.48479 28.9666 8.81896 28.9666 9.2746V12.3879H24.6014L22.7454 9.56252C22.5866 9.31037 22.4372 9.07418 22.2922 8.84746C22.1616 8.64328 22.0342 8.47704 21.9139 8.35291C21.8074 8.24302 21.686 8.15797 21.5441 8.0926C21.4101 8.03109 21.2399 8.00021 21.0384 8.00021C20.7814 8.00021 20.5482 8.07103 20.3248 8.21652C20.1038 8.36043 19.951 8.53834 19.8577 8.76048C19.7758 8.97158 19.7325 9.29507 19.7325 9.71263V12.3877H17.4349C17.0863 12.3877 16.8038 12.6719 16.8038 13.0228C16.8038 13.3736 17.0863 13.6577 17.435 13.6577H19.7325V15.9015H17.435C17.0863 15.9015 16.8038 16.1857 16.8038 16.5366C16.8038 16.8874 17.0863 17.1713 17.435 17.1713H19.7325V20.7257C19.7325 21.1667 19.8246 21.4969 20.0071 21.7067C20.1806 21.9067 20.4006 21.9996 20.6993 21.9996C20.9876 21.9996 21.2058 21.9063 21.3869 21.7059C21.5722 21.5006 21.666 21.1706 21.666 20.7257V17.1713H25.616L27.7535 20.4686C27.9022 20.6866 28.0556 20.9066 28.2087 21.1223C28.3468 21.316 28.4974 21.4867 28.6564 21.6293C28.7995 21.7582 28.953 21.8527 29.1125 21.9104C29.2768 21.9698 29.4687 22 29.6817 22C30.2598 22 30.8518 21.822 30.8518 20.5017V17.1713H33.1724C33.5211 17.1713 33.8038 16.887 33.8038 16.5362C33.8038 16.1855 33.5212 15.9011 33.1725 15.9011ZM28.9666 13.6575V15.9011H26.9098L25.4361 13.6575H28.9666ZM21.666 11.0795L22.5142 12.3875H21.666V11.0795ZM21.666 15.9011V13.6575H23.3378L24.7925 15.9011H21.666ZM28.9666 19.0327L27.7442 17.1713H28.9666V19.0327Z" fill="#303030"/>
</g>
<defs>
<clipPath id="clip0">
<rect width="50" height="50" fill="white" transform="translate(0.803833)"/>
</clipPath>
</defs>
</svg>
