<svg width="51" height="50" viewBox="0 0 51 50" fill="none" xmlns="http://www.w3.org/2000/svg">
<g clip-path="url(#clip0)">
<path d="M18.986 29.1646C17.6081 29.1646 16.4912 30.2815 16.4912 31.6593C16.4912 33.0372 17.6081 34.1541 18.986 34.1541C20.3638 34.1541 21.4807 33.0372 21.4807 31.6593C21.4807 30.2815 20.3638 29.1646 18.986 29.1646ZM18.986 32.4909C18.5267 32.4909 18.1544 32.1186 18.1544 31.6593C18.1544 31.2001 18.5267 30.8277 18.986 30.8277C19.4452 30.8277 19.8176 31.2001 19.8176 31.6593C19.8176 32.1186 19.4453 32.4909 18.986 32.4909Z" fill="#303030"/>
<path d="M19.8175 25.8384H18.1544V27.5016H19.8175V25.8384Z" fill="#303030"/>
<path d="M14.828 30.8276H13.1649V32.4908H14.828V30.8276Z" fill="#303030"/>
<path d="M24.8071 30.8276H23.1439V32.4908H24.8071V30.8276Z" fill="#303030"/>
<path d="M19.8175 35.8174H18.1544V37.4806H19.8175V35.8174Z" fill="#303030"/>
<path d="M45.3122 5.33398C42.7145 2.73558 38.5023 2.73496 35.9038 5.33253C33.3054 7.9302 33.3048 12.1424 35.9024 14.7409C35.9029 14.7414 35.9033 14.7419 35.9038 14.7424L37.0797 13.5657C35.1296 11.6219 35.1244 8.46544 37.0681 6.51526C38.7897 4.78805 41.5082 4.55977 43.4937 5.97576L41.0322 8.43726C40.894 8.39787 40.751 8.37687 40.6073 8.3749C39.6887 8.3749 38.9441 9.11948 38.9441 10.0381C38.9441 10.9567 39.6887 11.7013 40.6073 11.7013C41.5259 11.7013 42.2705 10.9567 42.2705 10.0381C42.2685 9.89431 42.2475 9.75138 42.2081 9.61313L44.6696 7.15163C46.0852 9.13237 45.8589 11.8467 44.1349 13.5657L45.3107 14.7424C47.9092 12.1447 47.9099 7.93249 45.3122 5.33398Z" fill="#303030"/>
<path d="M50.2694 7.53207C48.8915 2.19587 43.4487 -1.01313 38.1124 0.364708C32.7761 1.74255 29.5672 7.1854 30.9449 12.5217C31.8525 16.0367 34.5974 18.7816 38.1124 19.6892V27.5019C38.1124 27.9612 38.4847 28.3335 38.944 28.3335H39.7756V45.3811C39.7756 46.9886 38.4725 48.2917 36.865 48.2917C35.2575 48.2917 33.9544 46.9886 33.9544 45.3811V42.1595C39.7849 33.8687 37.7905 22.421 29.4996 16.5906C21.2088 10.7601 9.76114 12.7545 3.93066 21.0454C-1.89982 29.3362 0.0946444 40.7838 8.38558 46.6142C15.8475 51.8618 26.0311 50.8321 32.2914 44.1968V45.381C32.2914 47.9071 34.3391 49.9547 36.8651 49.9547C39.3912 49.9547 41.4388 47.9071 41.4388 45.381V28.3334H42.2704C42.7297 28.3334 43.102 27.9611 43.102 27.5018V22.5123H45.5968V23.3439H47.26V20.0175H45.5968V20.8491H43.102V19.6891C48.4382 18.3112 51.6472 12.8684 50.2694 7.53207ZM33.6285 39.5374C33.175 38.3995 32.2864 37.4895 31.1595 37.0094C31.5421 36.1486 31.8313 35.2492 32.0218 34.3267V34.32C32.0709 34.0772 32.0967 33.8294 32.1324 33.5841C32.1607 33.3903 32.1998 33.2015 32.2156 33.002C32.266 32.5568 32.2913 32.1094 32.2913 31.6598C32.2913 31.2116 32.268 30.7617 32.2231 30.3143C32.2023 30.1097 32.1615 29.9118 32.1316 29.7105C32.0975 29.4735 32.0726 29.2349 32.0252 29.0004V28.9937C31.6851 27.3428 31.0329 25.772 30.1034 24.3659C30.0959 24.3526 30.0942 24.3376 30.0859 24.3252C30.0776 24.3127 30.0584 24.2902 30.046 24.2711C29.9212 24.0848 29.7815 23.9102 29.6476 23.7306C29.5138 23.551 29.3982 23.3747 29.256 23.2067C29.2027 23.1427 29.1429 23.0853 29.0896 23.0221C28.6566 22.5158 28.1857 22.0432 27.6809 21.6084C27.5978 21.5369 27.5238 21.4587 27.4398 21.3897C27.2868 21.2633 27.1204 21.151 26.9608 21.0312C26.7662 20.8849 26.5749 20.7335 26.372 20.598C26.3554 20.5863 26.3404 20.573 26.323 20.5622C26.3055 20.5514 26.298 20.5531 26.2872 20.5464C24.8775 19.6146 23.3024 18.9617 21.6469 18.623C21.5081 18.5947 21.3667 18.583 21.2261 18.5598C20.9284 18.509 20.6307 18.4542 20.3264 18.4242C20.2499 18.4159 20.1725 18.4184 20.0952 18.4126C19.7285 18.3801 19.3601 18.3544 18.9858 18.3544C18.6116 18.3544 18.2432 18.3801 17.8773 18.4109C17.8 18.4167 17.7227 18.4109 17.6462 18.4226C17.3418 18.4525 17.0441 18.5057 16.7464 18.5581C16.6058 18.5814 16.4645 18.593 16.3256 18.6213C14.6724 18.9611 13.0995 19.6143 11.692 20.5456C11.6803 20.5523 11.667 20.5539 11.6562 20.5614C11.6454 20.5689 11.6238 20.5855 11.6072 20.5972C11.4043 20.7327 11.213 20.8841 11.0184 21.0304C10.8587 21.1502 10.6924 21.2624 10.5394 21.3888C10.4562 21.4579 10.3797 21.536 10.2982 21.6075C9.79346 22.0424 9.32258 22.515 8.88953 23.0212C8.83547 23.0844 8.7756 23.1418 8.72321 23.2059C8.58516 23.3722 8.46209 23.5551 8.33153 23.7298C8.20097 23.9044 8.05794 24.084 7.9332 24.2703C7.92073 24.2894 7.90576 24.306 7.89328 24.3243C7.88081 24.3426 7.8833 24.3518 7.87582 24.3651C6.94631 25.7712 6.29403 27.342 5.95402 28.9929V28.9995C5.90662 29.234 5.88167 29.4727 5.84757 29.7097C5.81764 29.911 5.77689 30.1089 5.7561 30.3134C5.70371 30.7617 5.68043 31.2116 5.68043 31.6598C5.68043 32.108 5.70371 32.5579 5.74862 33.0053C5.76857 33.2015 5.80766 33.3903 5.83177 33.5874C5.86753 33.8369 5.89331 34.0805 5.94238 34.3234V34.33C6.28177 35.9807 6.93384 37.5513 7.86335 38.957C7.87083 38.9703 7.87249 38.9853 7.88081 38.9977C7.88912 39.0102 7.90825 39.0326 7.92073 39.0518C8.04546 39.2381 8.18517 39.4127 8.31906 39.5923C8.45294 39.7719 8.56853 39.9482 8.71073 40.1162C8.76396 40.1802 8.82383 40.2376 8.87705 40.3008C9.3101 40.8071 9.78099 41.2797 10.2858 41.7145C10.3689 41.786 10.4429 41.8642 10.5269 41.9332C10.6799 42.0596 10.8463 42.1719 11.0059 42.2916C11.2005 42.438 11.3918 42.5894 11.5947 42.7249C11.6113 42.7365 11.6263 42.7499 11.6437 42.7607C11.6612 42.7715 11.6679 42.7698 11.6795 42.7765C13.0909 43.7076 14.6678 44.3595 16.3248 44.6966C16.4911 44.729 16.6574 44.744 16.8179 44.7706C17.0907 44.8163 17.3626 44.8671 17.6412 44.8954C18.5347 44.9863 19.4353 44.9863 20.3289 44.8954C20.6074 44.8671 20.8794 44.8163 21.1521 44.7706C21.3184 44.744 21.4848 44.729 21.6453 44.6966C23.2983 44.357 24.8709 43.7038 26.278 42.7723C26.2897 42.7657 26.3038 42.764 26.3146 42.7565C26.3254 42.749 26.3471 42.7324 26.3637 42.7207C26.5666 42.5852 26.7579 42.4338 26.9525 42.2875C27.1121 42.1677 27.2784 42.0555 27.4315 41.9291C27.5146 41.8601 27.5911 41.7819 27.6726 41.7104C28.1774 41.2755 28.6483 40.8029 29.0813 40.2967C29.1354 40.2335 29.1953 40.1761 29.2477 40.1121C29.3857 39.9457 29.5088 39.7628 29.6393 39.5882C29.7699 39.4135 29.9129 39.2339 30.0377 39.0476C30.0501 39.0285 30.0651 39.0119 30.0776 38.9936C30.09 38.9753 30.0876 38.9661 30.095 38.9528C30.1923 38.8056 30.2796 38.651 30.3711 38.4988C31.5192 38.9143 32.286 40.0021 32.2913 41.2231V41.5964C29.1626 45.8046 24.2295 48.2868 18.9858 48.2916C9.79305 48.2988 2.33484 40.8525 2.32756 31.6597C2.32029 22.4669 9.76664 15.0087 18.9594 15.0014C28.1522 14.9941 35.6104 22.4405 35.6177 31.6333C35.62 34.3922 34.9363 37.1082 33.6285 39.5374ZM27.0157 34.9861H30.1374C29.9642 35.5583 29.7465 36.1161 29.4863 36.6543C29.4506 36.6535 29.4165 36.6493 29.3807 36.6493C29.1632 36.6509 28.9462 36.6681 28.7312 36.7009L27.0157 34.9861ZM28.2971 38.6185C28.2581 38.6717 28.219 38.725 28.1791 38.7765C27.8957 39.147 27.5903 39.4999 27.2643 39.8335L27.1612 39.9366C26.9832 40.1121 26.7837 40.2634 26.5949 40.4264C26.832 39.5885 27.4319 38.9007 28.2298 38.552L28.2971 38.6185ZM25.0082 33.323C24.549 33.3231 24.1767 33.6954 24.1768 34.1548C24.1768 34.3752 24.2645 34.5866 24.4203 34.7425L27.0024 37.3204C26.0129 37.9253 25.2893 38.8828 24.9774 39.9998L22.0669 37.0892C21.7412 36.7654 21.2146 36.767 20.8908 37.0928C20.735 37.2495 20.6479 37.462 20.649 37.683V43.1715C20.5459 43.1839 20.4445 43.2039 20.3405 43.2189C20.2399 43.2305 20.1393 43.2422 20.0378 43.2513C19.6993 43.2821 19.3584 43.302 19.0125 43.3029H18.9592C18.6133 43.3029 18.2723 43.2821 17.9339 43.2513C17.8324 43.2422 17.7318 43.2305 17.6312 43.2189C17.5306 43.2072 17.4258 43.1864 17.3227 43.1715V37.683C17.3226 37.2237 16.9502 36.8515 16.4909 36.8516C16.2704 36.8516 16.0591 36.9392 15.9031 37.095L12.0271 40.9736C11.9764 40.9353 11.9248 40.8987 11.8749 40.8596C11.5018 40.5746 11.1464 40.2673 10.8105 39.9391L10.7074 39.836C10.3814 39.5024 10.076 39.1495 9.79263 38.779C9.75272 38.7275 9.70947 38.6742 9.67455 38.621L13.5514 34.745C13.8775 34.4216 13.8797 33.895 13.5562 33.5689C13.3994 33.4109 13.1859 33.3223 12.9635 33.323H7.47499C7.46003 33.219 7.43924 33.1176 7.42759 33.0136C7.41595 32.9097 7.40431 32.814 7.39516 32.7142C7.36522 32.3658 7.3436 32.0157 7.3436 31.6598C7.3436 31.3039 7.36522 30.9538 7.39682 30.6062C7.40597 30.5055 7.41761 30.4058 7.42926 30.306C7.4409 30.2062 7.46169 30.0997 7.47666 29.9966H12.9651C13.4244 29.9965 13.7966 29.6242 13.7965 29.1648C13.7965 28.9443 13.7089 28.733 13.5531 28.5771L9.67205 24.701C9.71114 24.6478 9.75022 24.5946 9.79014 24.543C10.0735 24.1726 10.3789 23.8197 10.7049 23.4861L10.808 23.383C11.1439 23.0548 11.4993 22.7474 11.8724 22.4624C11.9223 22.4233 11.9739 22.3867 12.0246 22.3485L15.9006 26.2245C16.224 26.5506 16.7506 26.5528 17.0767 26.2294C17.2347 26.0727 17.3233 25.8591 17.3227 25.6366V20.1481C17.4258 20.1331 17.5272 20.1132 17.6312 20.1007C17.7351 20.0882 17.8324 20.0774 17.9339 20.0683C18.2723 20.0375 18.6133 20.0175 18.9592 20.0167H19.0125C19.3584 20.0167 19.6993 20.0375 20.0378 20.0683C20.1393 20.0774 20.2399 20.0891 20.3405 20.1007C20.4411 20.1123 20.5459 20.1331 20.649 20.1481V25.6366C20.6491 26.0958 21.0215 26.4681 21.4808 26.468C21.7013 26.468 21.9126 26.3803 22.0685 26.2245L25.9446 22.346C25.9953 22.3842 26.0469 22.4208 26.0968 22.4599C26.4699 22.7449 26.8253 23.0523 27.1612 23.3805L27.2643 23.4836C27.5903 23.8172 27.8957 24.1701 28.1791 24.5406C28.219 24.5921 28.2581 24.6453 28.2971 24.6986L24.4203 28.5746C24.0942 28.898 24.092 29.4246 24.4155 29.7507C24.5722 29.9087 24.7858 29.9972 25.0083 29.9966H30.4968C30.5118 30.0997 30.5326 30.202 30.5442 30.306C30.5558 30.4099 30.5675 30.5055 30.5766 30.6062C30.6082 30.9538 30.6299 31.3039 30.6299 31.6598C30.6299 32.0157 30.6082 32.3658 30.5766 32.7142C30.5675 32.814 30.5558 32.9138 30.5442 33.0136C30.5326 33.1134 30.5118 33.219 30.4968 33.323H25.0082ZM24.5209 41.8991C23.8183 42.2792 23.0781 42.5849 22.3122 42.8114V39.6904L24.5209 41.8991ZM15.6595 39.6904V42.8114C14.8941 42.585 14.1545 42.2796 13.4525 41.9L15.6595 39.6904ZM8.74649 37.1948C8.36666 36.4922 8.06095 35.752 7.83424 34.9861H10.956L8.74649 37.1948ZM7.83424 28.3334C8.06095 27.5675 8.36666 26.8273 8.74649 26.1247L10.956 28.3334H7.83424ZM13.4508 21.4204C14.1534 21.0405 14.8936 20.7347 15.6595 20.5082V23.6291L13.4508 21.4204ZM22.3122 23.6291V20.5082C23.0781 20.7347 23.8183 21.0405 24.5209 21.4204L22.3122 23.6291ZM29.2252 26.1247C29.605 26.8273 29.9107 27.5675 30.1374 28.3334H27.0157L29.2252 26.1247ZM41.4387 26.6703H39.7756V25.0071H41.4387V26.6703ZM41.4387 23.3439H39.7756V20.0175H41.4387V23.3439ZM40.6072 18.3544C36.0165 18.3493 32.2964 14.6292 32.2913 10.0385C32.2913 5.44572 36.0144 1.72259 40.6072 1.72259C45.1999 1.72259 48.923 5.44572 48.923 10.0385C48.923 14.6312 45.1999 18.3544 40.6072 18.3544Z" fill="#303030"/>
</g>
<defs>
<clipPath id="clip0">
<rect width="50" height="50" fill="white" transform="translate(0.588745)"/>
</clipPath>
</defs>
</svg>
