<svg width="51" height="50" viewBox="0 0 51 50" fill="none" xmlns="http://www.w3.org/2000/svg">
<g clip-path="url(#clip0)">
<path d="M34.5575 15.1514C34.0185 15.1514 33.5809 15.5878 33.5809 16.1275C33.5809 16.6669 34.0185 17.1041 34.5575 17.1041C35.0977 17.1041 35.5341 16.6669 35.5341 16.1275C35.5341 15.5878 35.0977 15.1514 34.5575 15.1514Z" fill="#303030"/>
<path d="M16.8138 32.8945C16.2736 32.8945 15.8372 33.3321 15.8372 33.8711C15.8372 34.4113 16.2736 34.8477 16.8138 34.8477C17.3528 34.8477 17.7903 34.4113 17.7903 33.8711C17.7903 33.3321 17.3528 32.8945 16.8138 32.8945Z" fill="#303030"/>
<path d="M49.4715 6.00786C49.1419 5.93119 48.7955 6.03075 48.5575 6.27108L44.5089 10.3517H42.568L40.4314 8.13799V6.16999L44.4219 2.11992C44.6581 1.88036 44.7542 1.53589 44.676 1.20821C44.5982 0.880907 44.3571 0.61693 44.0382 0.509355C43.0357 0.171373 41.9866 9.26482e-05 40.9197 9.26482e-05C37.739 9.26482e-05 34.8493 1.48325 32.9916 4.06923C31.2528 6.49004 30.7169 9.45673 31.4848 12.296L24.2914 19.4894L12.3071 7.47767V5.12018C12.3071 4.77724 12.1271 4.4591 11.833 4.28286L4.92797 0.139329C4.54344 -0.0914601 4.05173 -0.0308064 3.73511 0.286195L0.973267 3.04766C0.656647 3.36466 0.595993 3.85637 0.826401 4.24089L4.96916 11.1459C5.1454 11.44 5.46317 11.6197 5.80611 11.62L8.16283 11.6208L20.1482 23.6325L12.9823 30.7985C10.143 30.0309 7.17482 30.5677 4.75287 32.3075C2.16841 34.1642 0.686401 37.053 0.686401 40.2337C0.686401 41.3003 0.857681 42.3497 1.19566 43.3519C1.30362 43.6727 1.57027 43.9149 1.89986 43.9912C2.22983 44.0679 2.57582 43.9683 2.81424 43.728L6.8624 39.6478H8.814L11.0376 41.8714V43.823L6.95739 47.8711C6.71706 48.1096 6.6175 48.4556 6.69417 48.7855C6.77047 49.1151 7.0127 49.3818 7.33352 49.4897C8.33564 49.8277 9.38506 49.999 10.4517 49.999C13.6323 49.999 16.5208 48.5166 18.3778 45.9321C20.1177 43.5102 20.6544 40.5423 19.8869 37.7031L25.6422 31.9478L26.9605 33.3799L26.3555 33.9845C25.974 34.366 25.974 34.9843 26.3555 35.3658C26.737 35.7469 27.355 35.7469 27.7368 35.3658L28.2846 34.818L40.6542 48.2541C40.6633 48.2641 40.6728 48.2736 40.6824 48.2831C42.9712 50.5719 46.6795 50.5727 48.9694 48.2827C51.2529 45.9981 51.2529 42.2807 48.9694 39.9961C48.9595 39.9862 48.9492 39.9766 48.9389 39.9671L35.4818 27.6212L36.0235 27.0795C36.405 26.6984 36.405 26.08 36.0235 25.6986C35.642 25.3171 35.024 25.3171 34.6422 25.6986L34.0414 26.2998L32.6067 24.9829L38.3898 19.1999C39.2118 19.4196 40.0602 19.531 40.9197 19.531C46.3045 19.531 50.6849 15.1502 50.6849 9.76572C50.6849 8.69875 50.5136 7.64971 50.1756 6.64721C50.0677 6.32639 49.801 6.08416 49.4715 6.00786ZM9.25918 9.95455C9.07607 9.77106 8.82773 9.6776 8.56833 9.6776L6.35962 9.67684L2.89359 3.88994L4.57701 2.20651L10.354 5.67331V7.88202C10.354 8.14066 10.4566 8.38862 10.6393 8.57172L22.9105 20.8707L21.5292 22.2516L9.25918 9.95455ZM34.0994 29.0036L47.6022 41.3911C49.1106 42.9155 49.106 45.3836 47.5881 46.9022C46.0668 48.4235 43.6041 48.4281 42.0767 46.9156L29.6667 33.4356L34.0994 29.0036ZM32.6589 27.6818L28.3426 31.9974L27.0242 30.5654L31.2242 26.365L32.6589 27.6818ZM40.9197 17.5778C40.0655 17.5778 39.2256 17.4409 38.4237 17.1708C38.0724 17.0529 37.684 17.1437 37.4216 17.4058C32.5258 22.3016 21.9766 32.8504 18.0921 36.7353C17.8297 36.9977 17.7385 37.3861 17.8571 37.7378C18.6689 40.1483 18.2806 42.7194 16.7913 44.7927C15.3062 46.8599 12.9953 48.0459 10.4517 48.0459C10.1659 48.0459 9.88174 48.0302 9.60021 48.0001L12.7019 44.9224C12.8866 44.7393 12.9907 44.4898 12.9907 44.2292V41.4666C12.9907 41.2076 12.8877 40.9593 12.7046 40.7762L9.90882 37.9804C9.72571 37.7973 9.47738 37.6943 9.21836 37.6943H6.45575C6.19521 37.6943 5.94573 37.7984 5.76224 37.9831L2.68492 41.0848C2.6544 40.8033 2.63915 40.5191 2.63915 40.2333C2.63915 37.6893 3.82475 35.3788 5.89232 33.8937C7.96523 32.4044 10.5367 32.0157 12.9476 32.8279C13.2989 32.9465 13.6873 32.8553 13.9497 32.5929C14.0035 32.5395 33.2655 13.2772 33.2792 13.2634C33.5416 13.001 33.6324 12.613 33.5142 12.2613C32.702 9.85079 33.0896 7.28045 34.5777 5.20868C36.0639 3.13959 38.3753 1.95322 40.9193 1.95322C41.2138 1.95322 41.5064 1.96962 41.7963 2.00167L38.759 5.08432C38.579 5.26705 38.4783 5.5131 38.4783 5.76944V8.53205C38.4783 8.78535 38.5763 9.02834 38.7521 9.2103L41.4503 12.0061C41.6342 12.1968 41.8878 12.3044 42.153 12.3044H44.9156C45.1757 12.3044 45.4252 12.2006 45.6087 12.0156L48.686 8.91428C48.7165 9.19581 48.7318 9.48 48.7318 9.76572C48.7318 14.0733 45.2272 17.5778 40.9197 17.5778Z" fill="#303030"/>
<path d="M31.1052 18.1987L18.8848 30.4191C18.5037 30.8002 18.5037 31.4185 18.8848 31.8C19.2663 32.1815 19.8846 32.1815 20.2661 31.8L32.4865 19.5796C32.868 19.1985 32.868 18.5802 32.4865 18.1987C32.105 17.8172 31.4867 17.8172 31.1052 18.1987Z" fill="#303030"/>
<path d="M43.4457 44.1405C43.8272 44.5208 44.4456 44.5208 44.827 44.1382C45.2078 43.7563 45.2066 43.138 44.8248 42.7572L36.0223 33.9831C35.6405 33.6024 35.0217 33.6035 34.6414 33.9853C34.2603 34.3676 34.2615 34.9856 34.6433 35.3663L43.4457 44.1405Z" fill="#303030"/>
</g>
<defs>
<clipPath id="clip0">
<rect width="49.9024" height="50" fill="white" transform="translate(0.637573)"/>
</clipPath>
</defs>
</svg>
