<svg width="220" height="140" viewBox="0 0 220 140" fill="none" xmlns="http://www.w3.org/2000/svg">
<path d="M42.897 82.399C41.2336 82.399 40.1849 81.2674 40.1849 79.4788V66.2284H46.1153V61.5195H40.1849L40.2211 54H35.7009L34.8331 61.5195H31V66.2284H34.7246V79.6248C34.7246 84.2241 37.6175 87.3268 41.8845 87.3268C43.1501 87.3268 44.7412 87.0713 45.8983 86.6698L46.4769 86.4873V81.6324L45.3921 81.961C44.5965 82.253 43.4756 82.399 42.897 82.399Z" fill="#303030"/>
<path d="M61.9168 61.045C59.7472 61.045 57.6137 61.9941 56.1672 63.4542V61.483H50.8516V86.4142H56.3119V73.0543C56.3119 68.9295 58.3369 66.1553 61.3744 66.1553C62.1338 66.1553 63.3994 66.3013 64.4843 66.7759L65.6414 67.2869V61.9941L65.2075 61.775C64.3396 61.3005 63.1101 61.045 61.9168 61.045Z" fill="#303030"/>
<path d="M80.0346 60.5705C72.4769 60.5705 66.9805 66.0823 66.9805 73.6384C66.9805 81.5594 72.5493 87.3268 80.2154 87.3268C85.6396 87.3268 90.0874 84.7717 92.0762 80.5009L92.4378 79.7708L87.8454 77.4346L87.4476 78.1647C86.1096 80.6834 83.3976 82.2165 80.2877 82.2165C76.3823 82.2165 73.4533 79.8438 72.6577 76.084H92.8356L92.9079 75.3175C92.9441 74.77 92.9441 74.1859 92.9441 73.7114C92.9441 66.1189 87.5199 60.5705 80.0346 60.5705ZM79.8538 65.7173C83.4337 65.7173 86.182 67.7615 87.1222 71.0467H72.7662C73.6341 67.7615 76.3462 65.7173 79.8538 65.7173Z" fill="#303030"/>
<path d="M109.251 60.5705C101.694 60.5705 96.1973 66.0823 96.1973 73.6384C96.1973 81.5594 101.766 87.3268 109.432 87.3268C114.856 87.3268 119.304 84.7717 121.293 80.5009L121.655 79.7708L117.062 77.4346L116.664 78.1647C115.326 80.6834 112.614 82.2165 109.504 82.2165C105.599 82.2165 102.67 79.8438 101.874 76.084H122.052L122.125 75.3175C122.161 74.77 122.161 74.1859 122.161 73.7114C122.161 66.1189 116.737 60.5705 109.251 60.5705ZM109.071 65.7173C112.65 65.7173 115.399 67.7615 116.339 71.0467H101.983C102.851 67.7615 105.563 65.7173 109.071 65.7173Z" fill="#303030"/>
<path d="M140.062 60.5705C136.772 60.5705 133.987 61.7386 132.035 63.8922V61.4831H126.574V97H132.035V84.0781C133.987 86.1953 136.808 87.3633 140.098 87.3633C147.331 87.3633 152.791 81.5959 152.791 73.9669C152.827 66.3379 147.331 60.5705 140.062 60.5705ZM147.367 73.9304C147.367 78.6392 144.076 82.2165 139.665 82.2165C135.253 82.2165 131.926 78.6757 131.926 73.9304C131.926 69.2216 135.253 65.7173 139.665 65.7173C144.112 65.7173 147.367 69.1851 147.367 73.9304Z" fill="#303030"/>
<path d="M174.161 81.3039H187.323V86.4142H163.529L183.418 61.5195H189.999L174.161 81.3039Z" fill="#FEBF43"/>
<g opacity="0.2">
<g opacity="0.2">
<mask id="mask0_1709_4831" style="mask-type:alpha" maskUnits="userSpaceOnUse" x="170" y="81" width="18" height="6">
<g opacity="0.2">
<g opacity="0.2">
<g opacity="0.2">
<path opacity="0.2" d="M187.324 81.3039H170.328V86.4508H187.324V81.3039Z" fill="url(#paint0_linear_1709_4831)"/>
</g>
</g>
</g>
</mask>
<g mask="url(#mask0_1709_4831)">
<g opacity="0.2">
<path opacity="0.2" d="M187.324 81.3039H170.328V86.4508H187.324V81.3039Z" fill="url(#paint1_linear_1709_4831)"/>
</g>
</g>
</g>
</g>
<path d="M169.967 66.6299H156.805V61.5195H180.599L160.71 86.4142H154.129L169.967 66.6299Z" fill="#FEBF43"/>
<g opacity="0.2">
<g opacity="0.2">
<mask id="mask1_1709_4831" style="mask-type:alpha" maskUnits="userSpaceOnUse" x="156" y="61" width="18" height="6">
<g opacity="0.2">
<g opacity="0.2">
<g opacity="0.2">
<path opacity="0.2" d="M173.8 61.5195H156.805V66.6664H173.8V61.5195Z" fill="url(#paint2_linear_1709_4831)"/>
</g>
</g>
</g>
</mask>
<g mask="url(#mask1_1709_4831)">
<g opacity="0.2">
<path opacity="0.2" d="M173.8 61.5195H156.805V66.6664H173.8V61.5195Z" fill="url(#paint3_linear_1709_4831)"/>
</g>
</g>
</g>
</g>
<defs>
<linearGradient id="paint0_linear_1709_4831" x1="170.296" y1="83.8665" x2="187.279" y2="83.8665" gradientUnits="userSpaceOnUse">
<stop stop-color="white"/>
<stop offset="1"/>
</linearGradient>
<linearGradient id="paint1_linear_1709_4831" x1="170.296" y1="83.8665" x2="187.279" y2="83.8665" gradientUnits="userSpaceOnUse">
<stop stop-color="#231F20"/>
<stop offset="1" stop-color="white"/>
</linearGradient>
<linearGradient id="paint2_linear_1709_4831" x1="173.84" y1="64.0591" x2="156.848" y2="64.0591" gradientUnits="userSpaceOnUse">
<stop stop-color="white"/>
<stop offset="1"/>
</linearGradient>
<linearGradient id="paint3_linear_1709_4831" x1="173.84" y1="64.0591" x2="156.848" y2="64.0591" gradientUnits="userSpaceOnUse">
<stop stop-color="#231F20"/>
<stop offset="1" stop-color="white"/>
</linearGradient>
</defs>
</svg>
