<svg width="25" height="24" viewBox="0 0 25 24" fill="none" xmlns="http://www.w3.org/2000/svg">
<path fill-rule="evenodd" clip-rule="evenodd" d="M18.8707 7.12323C19.2695 6.73135 19.2654 6.08462 18.8666 5.69274C18.4775 5.31038 17.8498 5.30648 17.4608 5.68885L12.4736 10.59L7.4865 5.68885C7.09743 5.30648 6.46974 5.31038 6.08067 5.69274C5.68192 6.08462 5.67781 6.73135 6.07657 7.12323L11.0389 12L6.07657 16.8768C5.67781 17.2687 5.68192 17.9154 6.08067 18.3073C6.46974 18.6896 7.09743 18.6935 7.4865 18.3112L12.4736 13.41L17.4608 18.3112C17.8498 18.6935 18.4775 18.6896 18.8666 18.3073C19.2654 17.9154 19.2695 17.2687 18.8707 16.8768L13.9084 12L18.8707 7.12323Z" fill="#C2D1D9"/>
<mask id="mask0_3_1760" style="mask-type:alpha" maskUnits="userSpaceOnUse" x="5" y="5" width="15" height="14">
<path fill-rule="evenodd" clip-rule="evenodd" d="M18.8707 7.12323C19.2695 6.73135 19.2654 6.08462 18.8666 5.69274C18.4775 5.31038 17.8498 5.30648 17.4608 5.68885L12.4736 10.59L7.4865 5.68885C7.09743 5.30648 6.46974 5.31038 6.08067 5.69274C5.68192 6.08462 5.67781 6.73135 6.07657 7.12323L11.0389 12L6.07657 16.8768C5.67781 17.2687 5.68192 17.9154 6.08067 18.3073C6.46974 18.6896 7.09743 18.6935 7.4865 18.3112L12.4736 13.41L17.4608 18.3112C17.8498 18.6935 18.4775 18.6896 18.8666 18.3073C19.2654 17.9154 19.2695 17.2687 18.8707 16.8768L13.9084 12L18.8707 7.12323Z" fill="white"/>
</mask>
<g mask="url(#mask0_3_1760)">
<rect x="0.263184" width="24.4211" height="24" fill="#303030"/>
</g>
</svg>
